<mxfile host="app.diagrams.net" modified="2024-07-16T20:10:34.262Z" agent="Mozilla/5.0 (Windows NT 10.0; Win64; x64) AppleWebKit/537.36 (KHTML, like Gecko) Chrome/126.0.0.0 Safari/537.36" etag="Kso0j-Sr3IS__7rzE3lO" version="24.6.5" type="github">
  <diagram name="Page-1" id="90a13364-a465-7bf4-72fc-28e22215d7a0">
    <mxGraphModel dx="1434" dy="780" grid="1" gridSize="10" guides="1" tooltips="1" connect="1" arrows="1" fold="1" page="1" pageScale="1.5" pageWidth="1169" pageHeight="826" background="none" math="0" shadow="0">
      <root>
        <mxCell id="0" style=";html=1;" />
        <mxCell id="1" style=";html=1;" parent="0" />
        <mxCell id="V4-tu-K6Rpd_aIwKzUje-17" value="" style="whiteSpace=wrap;html=1;shadow=1;fontSize=18;fillColor=#f5f5f5;strokeColor=#666666;" vertex="1" parent="1">
          <mxGeometry x="1040" y="310" width="400" height="1230" as="geometry" />
        </mxCell>
        <mxCell id="V4-tu-K6Rpd_aIwKzUje-14" value="" style="whiteSpace=wrap;html=1;shadow=1;fontSize=18;fillColor=#f5f5f5;strokeColor=#666666;" vertex="1" parent="1">
          <mxGeometry x="210" y="260" width="800" height="280" as="geometry" />
        </mxCell>
        <mxCell id="3a17f1ce550125da-13" style="edgeStyle=elbowEdgeStyle;rounded=0;html=1;startArrow=none;startFill=0;jettySize=auto;orthogonalLoop=1;fontSize=18;elbow=vertical;" parent="1" source="3a17f1ce550125da-4" target="3a17f1ce550125da-2" edge="1">
          <mxGeometry relative="1" as="geometry" />
        </mxCell>
        <mxCell id="V4-tu-K6Rpd_aIwKzUje-25" value="" style="edgeStyle=orthogonalEdgeStyle;rounded=0;orthogonalLoop=1;jettySize=auto;html=1;" edge="1" parent="1" source="3a17f1ce550125da-2" target="V4-tu-K6Rpd_aIwKzUje-9">
          <mxGeometry relative="1" as="geometry" />
        </mxCell>
        <mxCell id="3a17f1ce550125da-2" value="pipeline.yaml&lt;div&gt;&lt;br&gt;&lt;/div&gt;" style="whiteSpace=wrap;html=1;shadow=1;fontSize=18;fillColor=#f5f5f5;strokeColor=#666666;" parent="1" vertex="1">
          <mxGeometry x="750" y="1305.5" width="220" height="80" as="geometry" />
        </mxCell>
        <mxCell id="V4-tu-K6Rpd_aIwKzUje-21" style="edgeStyle=orthogonalEdgeStyle;rounded=0;orthogonalLoop=1;jettySize=auto;html=1;exitX=1;exitY=0.5;exitDx=0;exitDy=0;entryX=0;entryY=0.5;entryDx=0;entryDy=0;" edge="1" parent="1" source="3a17f1ce550125da-4" target="V4-tu-K6Rpd_aIwKzUje-3">
          <mxGeometry relative="1" as="geometry" />
        </mxCell>
        <mxCell id="3a17f1ce550125da-4" value="tasks.yaml" style="whiteSpace=wrap;html=1;shadow=1;fontSize=18;fillColor=#f5f5f5;strokeColor=#666666;" parent="1" vertex="1">
          <mxGeometry x="750" y="370" width="220.5" height="131" as="geometry" />
        </mxCell>
        <mxCell id="3a17f1ce550125da-8" value="Tasks" style="whiteSpace=wrap;html=1;shadow=1;fontSize=18;fillColor=#f5f5f5;strokeColor=#666666;" parent="1" vertex="1">
          <mxGeometry x="20" y="350" width="120" height="150" as="geometry" />
        </mxCell>
        <mxCell id="V4-tu-K6Rpd_aIwKzUje-23" value="" style="edgeStyle=orthogonalEdgeStyle;rounded=0;orthogonalLoop=1;jettySize=auto;html=1;" edge="1" parent="1" source="V4-tu-K6Rpd_aIwKzUje-1" target="V4-tu-K6Rpd_aIwKzUje-8">
          <mxGeometry relative="1" as="geometry" />
        </mxCell>
        <mxCell id="V4-tu-K6Rpd_aIwKzUje-1" value="pvc.yaml&lt;br&gt;(For workspace: Persistent Volume Claim)" style="whiteSpace=wrap;html=1;shadow=1;fontSize=18;fillColor=#f5f5f5;strokeColor=#666666;" vertex="1" parent="1">
          <mxGeometry x="750" y="1060" width="220" height="140" as="geometry" />
        </mxCell>
        <UserObject label="kubectl apply -f tasks.yaml&lt;div&gt;&lt;br/&gt;&lt;/div&gt;" link="$ kubectl apply -f tasks.yaml&#xa;task.tekton.dev/echo created&#xa;task.tekton.dev/checkout created" id="V4-tu-K6Rpd_aIwKzUje-3">
          <mxCell style="whiteSpace=wrap;html=1;shadow=1;fontSize=18;fillColor=#f5f5f5;strokeColor=#666666;" vertex="1" parent="1">
            <mxGeometry x="1080" y="370" width="300.5" height="200" as="geometry" />
          </mxCell>
        </UserObject>
        <mxCell id="V4-tu-K6Rpd_aIwKzUje-7" value="Check that openshift-client is installed as a cluster task&lt;span style=&quot;text-align: start;&quot;&gt;&lt;br&gt;&lt;/span&gt;" style="whiteSpace=wrap;html=1;shadow=1;fontSize=18;fillColor=#f5f5f5;strokeColor=#666666;" vertex="1" parent="1">
          <mxGeometry x="280" y="370" width="330" height="130" as="geometry" />
        </mxCell>
        <UserObject label="kubectl apply -f pvc.yaml&lt;span style=&quot;color: rgba(0, 0, 0, 0); font-family: monospace; font-size: 0px; text-align: start; text-wrap: nowrap;&quot;&gt;%3CmxGraphModel%3E%3Croot%3E%3CmxCell%20id%3D%220%22%2F%3E%3CmxCell%20id%3D%221%22%20parent%3D%220%22%2F%3E%3CUserObject%20label%3D%22kubectl%20apply%20-f%20tasks.yaml%26lt%3Bdiv%26gt%3B%26lt%3Bbr%2F%26gt%3B%26lt%3B%2Fdiv%26gt%3B%22%20link%3D%22%24%20kubectl%20apply%20-f%20tasks.yaml%26%2310%3Btask.tekton.dev%2Fecho%20created%26%2310%3Btask.tekton.dev%2Fcheckout%20created%22%20id%3D%222%22%3E%3CmxCell%20style%3D%22whiteSpace%3Dwrap%3Bhtml%3D1%3Bshadow%3D1%3BfontSize%3D18%3BfillColor%3D%23f5f5f5%3BstrokeColor%3D%23666666%3B%22%20vertex%3D%221%22%20parent%3D%221%22%3E%3CmxGeometry%20x%3D%22240%22%20y%3D%22860%22%20width%3D%22300.5%22%20height%3D%22131%22%20as%3D%22geometry%22%2F%3E%3C%2FmxCell%3E%3C%2FUserObject%3E%3C%2Froot%3E%3C%2FmxGraphModel%3E&lt;/span&gt;&lt;div&gt;&lt;br&gt;&lt;/div&gt;" link="$ kubectl apply -f tasks.yaml&#xa;task.tekton.dev/echo created&#xa;task.tekton.dev/checkout created" id="V4-tu-K6Rpd_aIwKzUje-8">
          <mxCell style="whiteSpace=wrap;html=1;shadow=1;fontSize=18;fillColor=#f5f5f5;strokeColor=#666666;" vertex="1" parent="1">
            <mxGeometry x="1070" y="1064.5" width="300.5" height="131" as="geometry" />
          </mxCell>
        </UserObject>
        <UserObject label="kubectl apply -f pipeline.yaml&lt;span style=&quot;color: rgba(0, 0, 0, 0); font-family: monospace; font-size: 0px; text-align: start; text-wrap: nowrap;&quot;&gt;%3CmxGraphModel%3E%3Croot%3E%3CmxCell%20id%3D%220%22%2F%3E%3CmxCell%20id%3D%221%22%20parent%3D%220%22%2F%3E%3CUserObject%20label%3D%22kubectl%20apply%20-f%20tasks.yaml%26lt%3Bdiv%26gt%3B%26lt%3Bbr%2F%26gt%3B%26lt%3B%2Fdiv%26gt%3B%22%20link%3D%22%24%20kubectl%20apply%20-f%20tasks.yaml%26%2310%3Btask.tekton.dev%2Fecho%20created%26%2310%3Btask.tekton.dev%2Fcheckout%20created%22%20id%3D%222%22%3E%3CmxCell%20style%3D%22whiteSpace%3Dwrap%3Bhtml%3D1%3Bshadow%3D1%3BfontSize%3D18%3BfillColor%3D%23f5f5f5%3BstrokeColor%3D%23666666%3B%22%20vertex%3D%221%22%20parent%3D%221%22%3E%3CmxGeometry%20x%3D%221070%22%20y%3D%22589%22%20width%3D%22300.5%22%20height%3D%22131%22%20as%3D%22geometry%22%2F%3E%3C%2FmxCell%3E%3C%2FUserObject%3E%3C%2Froot%3E%3C%2FmxGraphModel%3E&lt;/span&gt;&lt;div&gt;&lt;br&gt;&lt;/div&gt;" link="$ kubectl apply -f tasks.yaml&#xa;task.tekton.dev/echo created&#xa;task.tekton.dev/checkout created" id="V4-tu-K6Rpd_aIwKzUje-9">
          <mxCell style="whiteSpace=wrap;html=1;shadow=1;fontSize=18;fillColor=#f5f5f5;strokeColor=#666666;" vertex="1" parent="1">
            <mxGeometry x="1070" y="1280" width="300.5" height="131" as="geometry" />
          </mxCell>
        </UserObject>
        <mxCell id="V4-tu-K6Rpd_aIwKzUje-18" value="Run in Kubernetes Pods" style="text;html=1;align=center;verticalAlign=middle;whiteSpace=wrap;rounded=0;fontSize=18;" vertex="1" parent="1">
          <mxGeometry x="1130" y="280" width="200" height="30" as="geometry" />
        </mxCell>
        <mxCell id="V4-tu-K6Rpd_aIwKzUje-26" value="Pipeline" style="whiteSpace=wrap;html=1;shadow=1;fontSize=18;fillColor=#f5f5f5;strokeColor=#666666;" vertex="1" parent="1">
          <mxGeometry x="10" y="1301" width="120" height="150" as="geometry" />
        </mxCell>
        <mxCell id="V4-tu-K6Rpd_aIwKzUje-27" value="Workspace&lt;br&gt;(Volume)" style="whiteSpace=wrap;html=1;shadow=1;fontSize=18;fillColor=#f5f5f5;strokeColor=#666666;" vertex="1" parent="1">
          <mxGeometry x="10" y="1060" width="120" height="150" as="geometry" />
        </mxCell>
        <mxCell id="V4-tu-K6Rpd_aIwKzUje-28" value="Tekton" style="text;html=1;align=center;verticalAlign=middle;whiteSpace=wrap;rounded=0;fontSize=18;" vertex="1" parent="1">
          <mxGeometry x="10" y="290" width="160" height="30" as="geometry" />
        </mxCell>
        <mxCell id="V4-tu-K6Rpd_aIwKzUje-31" value="Unit 5 -&amp;nbsp;&lt;span style=&quot;background-color: rgb(255, 255, 255); color: rgb(31, 31, 31); letter-spacing: var(--cds-letter-spacing-display2); text-align: start;&quot;&gt;Deploy to Kubernetes/OpenShift&lt;/span&gt;" style="text;html=1;align=center;verticalAlign=middle;whiteSpace=wrap;rounded=0;fontSize=18;" vertex="1" parent="1">
          <mxGeometry x="260" y="170" width="510" height="30" as="geometry" />
        </mxCell>
        <mxCell id="V4-tu-K6Rpd_aIwKzUje-32" value="Check for all installed Cluster tasks&lt;br&gt;&lt;ol style=&quot;padding: 5px 15px; margin: 0px; box-sizing: border-box; color: rgb(153, 153, 153); overflow-x: auto; flex: 1 1 0%; line-height: 1.75em; font-family: Consolas, &amp;quot;YaHei Consolas Hybrid&amp;quot;, &amp;quot;Meiryo UI&amp;quot;, &amp;quot;Malgun Gothic&amp;quot;, &amp;quot;Segoe UI&amp;quot;, &amp;quot;Trebuchet MS&amp;quot;, Helvetica, monospace, monospace; font-size: 14px; text-align: left; white-space: pre;&quot; class=&quot;linenums&quot;&gt;&lt;li style=&quot;padding: 0px; margin: 0px; box-sizing: border-box; list-style-type: &amp;quot;&amp;quot;;&quot; class=&quot;L0&quot;&gt;&lt;code style=&quot;padding: 0px; margin: 0px; box-sizing: border-box; font-family: Consolas, &amp;quot;YaHei Consolas Hybrid&amp;quot;, &amp;quot;Meiryo UI&amp;quot;, &amp;quot;Malgun Gothic&amp;quot;, &amp;quot;Segoe UI&amp;quot;, &amp;quot;Trebuchet MS&amp;quot;, Helvetica, monospace, monospace; font-size: inherit; color: inherit; overflow-wrap: normal; word-break: normal; background: none; border-radius: 3px; border: none; display: inline; max-width: initial; overflow: initial; line-height: inherit;&quot; class=&quot;language-bash&quot;&gt;&lt;span style=&quot;padding: 0px; margin: 0px; box-sizing: border-box; color: rgb(0, 0, 0);&quot; class=&quot;pln&quot;&gt;tkn clustertask ls&lt;/span&gt;&lt;/code&gt;&lt;/li&gt;&lt;/ol&gt;&lt;div style=&quot;text-align: center;&quot;&gt;&lt;span style=&quot;font-size: 0px; text-wrap: nowrap; color: rgba(0, 0, 0, 0); font-family: monospace; text-align: start; background-color: initial;&quot;&gt;tkn hub install task git-clone --version 0.8&lt;/span&gt;&lt;/div&gt;" style="whiteSpace=wrap;html=1;shadow=1;fontSize=18;fillColor=#f5f5f5;strokeColor=#666666;" vertex="1" parent="1">
          <mxGeometry x="600" y="260" width="330" height="90" as="geometry" />
        </mxCell>
        <mxCell id="V4-tu-K6Rpd_aIwKzUje-39" value="" style="endArrow=none;html=1;rounded=0;entryX=0;entryY=0.5;entryDx=0;entryDy=0;exitX=1;exitY=0.5;exitDx=0;exitDy=0;" edge="1" parent="1" source="V4-tu-K6Rpd_aIwKzUje-44" target="3a17f1ce550125da-2">
          <mxGeometry width="50" height="50" relative="1" as="geometry">
            <mxPoint x="600" y="1345.5" as="sourcePoint" />
            <mxPoint x="640" y="1301" as="targetPoint" />
          </mxGeometry>
        </mxCell>
        <mxCell id="V4-tu-K6Rpd_aIwKzUje-44" value="&lt;ol class=&quot;linenums&quot; style=&quot;padding: 5px 15px; margin: 0px; box-sizing: border-box; overflow-x: auto; flex: 1 1 0%; line-height: 1.75em;&quot;&gt;&lt;li class=&quot;L0&quot; style=&quot;font-size: 14px; white-space: pre; font-family: Consolas, &amp;quot;YaHei Consolas Hybrid&amp;quot;, &amp;quot;Meiryo UI&amp;quot;, &amp;quot;Malgun Gothic&amp;quot;, &amp;quot;Segoe UI&amp;quot;, &amp;quot;Trebuchet MS&amp;quot;, Helvetica, monospace, monospace; color: rgb(153, 153, 153); padding: 0px; margin: 0px; box-sizing: border-box; list-style-type: &amp;quot;&amp;quot;;&quot;&gt;&lt;span style=&quot;color: rgba(0, 0, 0, 0); font-family: monospace; font-size: 0px; white-space-collapse: collapse;&quot;&gt;Add Nosetest task%3CmxGraphModel%3E%3Croot%3E%3CmxCell%20id%3D%220%22%2F%3E%3CmxCell%20id%3D%221%22%20parent%3D%220%22%2F%3E%3CmxCell%20id%3D%222%22%20value%3D%22%26lt%3Bol%20class%3D%26quot%3Blinenums%26quot%3B%20style%3D%26quot%3Bpadding%3A%205px%2015px%3B%20margin%3A%200px%3B%20box-sizing%3A%20border-box%3B%20color%3A%20rgb(153%2C%20153%2C%20153)%3B%20overflow-x%3A%20auto%3B%20flex%3A%201%201%200%25%3B%20line-height%3A%201.75em%3B%20font-family%3A%20Consolas%2C%20%26amp%3Bquot%3BYaHei%20Consolas%20Hybrid%26amp%3Bquot%3B%2C%20%26amp%3Bquot%3BMeiryo%20UI%26amp%3Bquot%3B%2C%20%26amp%3Bquot%3BMalgun%20Gothic%26amp%3Bquot%3B%2C%20%26amp%3Bquot%3BSegoe%20UI%26amp%3Bquot%3B%2C%20%26amp%3Bquot%3BTrebuchet%20MS%26amp%3Bquot%3B%2C%20Helvetica%2C%20monospace%2C%20monospace%3B%20font-size%3A%2014px%3B%20white-space%3A%20pre%3B%26quot%3B%26gt%3B%26lt%3Bli%20class%3D%26quot%3BL0%26quot%3B%20style%3D%26quot%3Bpadding%3A%200px%3B%20margin%3A%200px%3B%20box-sizing%3A%20border-box%3B%20list-style-type%3A%20%26amp%3Bquot%3B%26amp%3Bquot%3B%3B%26quot%3B%26gt%3B%26lt%3Bcode%20class%3D%26quot%3Blanguage-yaml%26quot%3B%20style%3D%26quot%3Bpadding%3A%200px%3B%20margin%3A%200px%3B%20box-sizing%3A%20border-box%3B%20font-family%3A%20Consolas%2C%20%26amp%3Bquot%3BYaHei%20Consolas%20Hybrid%26amp%3Bquot%3B%2C%20%26amp%3Bquot%3BMeiryo%20UI%26amp%3Bquot%3B%2C%20%26amp%3Bquot%3BMalgun%20Gothic%26amp%3Bquot%3B%2C%20%26amp%3Bquot%3BSegoe%20UI%26amp%3Bquot%3B%2C%20%26amp%3Bquot%3BTrebuchet%20MS%26amp%3Bquot%3B%2C%20Helvetica%2C%20monospace%2C%20monospace%3B%20font-size%3A%20inherit%3B%20color%3A%20inherit%3B%20overflow-wrap%3A%20normal%3B%20word-break%3A%20normal%3B%20background%3A%20none%3B%20border-radius%3A%203px%3B%20border%3A%20none%3B%20display%3A%20inline%3B%20max-width%3A%20initial%3B%20overflow%3A%20initial%3B%20line-height%3A%20inherit%3B%26quot%3B%26gt%3B%26lt%3Bspan%20class%3D%26quot%3Bpln%26quot%3B%20style%3D%26quot%3Bpadding%3A%200px%3B%20margin%3A%200px%3B%20box-sizing%3A%20border-box%3B%20color%3A%20rgb(0%2C%200%2C%200)%3B%26quot%3B%26gt%3BAdd%20Lint%20task%20ref%20with%20parameters%3A%26lt%3B%2Fspan%26gt%3B%26lt%3B%2Fcode%26gt%3B%26lt%3B%2Fli%26gt%3B%26lt%3Bli%20class%3D%26quot%3BL0%26quot%3B%20style%3D%26quot%3Bpadding%3A%200px%3B%20margin%3A%200px%3B%20box-sizing%3A%20border-box%3B%20list-style-type%3A%20%26amp%3Bquot%3B%26amp%3Bquot%3B%3B%26quot%3B%26gt%3B%26lt%3Bcode%20class%3D%26quot%3Blanguage-yaml%26quot%3B%20style%3D%26quot%3Bpadding%3A%200px%3B%20margin%3A%200px%3B%20box-sizing%3A%20border-box%3B%20font-family%3A%20Consolas%2C%20%26amp%3Bquot%3BYaHei%20Consolas%20Hybrid%26amp%3Bquot%3B%2C%20%26amp%3Bquot%3BMeiryo%20UI%26amp%3Bquot%3B%2C%20%26amp%3Bquot%3BMalgun%20Gothic%26amp%3Bquot%3B%2C%20%26amp%3Bquot%3BSegoe%20UI%26amp%3Bquot%3B%2C%20%26amp%3Bquot%3BTrebuchet%20MS%26amp%3Bquot%3B%2C%20Helvetica%2C%20monospace%2C%20monospace%3B%20font-size%3A%20inherit%3B%20color%3A%20inherit%3B%20overflow-wrap%3A%20normal%3B%20word-break%3A%20normal%3B%20background%3A%20none%3B%20border-radius%3A%203px%3B%20border%3A%20none%3B%20display%3A%20inline%3B%20max-width%3A%20initial%3B%20overflow%3A%20initial%3B%20line-height%3A%20inherit%3B%26quot%3B%26gt%3B%26lt%3Bspan%20class%3D%26quot%3Bpln%26quot%3B%20style%3D%26quot%3Bpadding%3A%200px%3B%20margin%3A%200px%3B%20box-sizing%3A%20border-box%3B%20color%3A%20rgb(0%2C%200%2C%200)%3B%26quot%3B%26gt%3B%26lt%3Bbr%26gt%3B%26lt%3B%2Fspan%26gt%3B%26lt%3B%2Fcode%26gt%3B%26lt%3B%2Fli%26gt%3B%26lt%3Bli%20class%3D%26quot%3BL0%26quot%3B%20style%3D%26quot%3Bpadding%3A%200px%3B%20margin%3A%200px%3B%20box-sizing%3A%20border-box%3B%20list-style-type%3A%20%26amp%3Bquot%3B%26amp%3Bquot%3B%3B%26quot%3B%26gt%3B%26lt%3Bcode%20class%3D%26quot%3Blanguage-yaml%26quot%3B%20style%3D%26quot%3Bpadding%3A%200px%3B%20margin%3A%200px%3B%20box-sizing%3A%20border-box%3B%20font-family%3A%20Consolas%2C%20%26amp%3Bquot%3BYaHei%20Consolas%20Hybrid%26amp%3Bquot%3B%2C%20%26amp%3Bquot%3BMeiryo%20UI%26amp%3Bquot%3B%2C%20%26amp%3Bquot%3BMalgun%20Gothic%26amp%3Bquot%3B%2C%20%26amp%3Bquot%3BSegoe%20UI%26amp%3Bquot%3B%2C%20%26amp%3Bquot%3BTrebuchet%20MS%26amp%3Bquot%3B%2C%20Helvetica%2C%20monospace%2C%20monospace%3B%20font-size%3A%20inherit%3B%20color%3A%20inherit%3B%20overflow-wrap%3A%20normal%3B%20word-break%3A%20normal%3B%20background%3A%20none%3B%20border-radius%3A%203px%3B%20border%3A%20none%3B%20display%3A%20inline%3B%20max-width%3A%20initial%3B%20overflow%3A%20initial%3B%20line-height%3A%20inherit%3B%26quot%3B%26gt%3B%26lt%3Bspan%20class%3D%26quot%3Bpln%26quot%3B%20style%3D%26quot%3Bpadding%3A%200px%3B%20margin%3A%200px%3B%20box-sizing%3A%20border-box%3B%20color%3A%20rgb(0%2C%200%2C%200)%3B%26quot%3B%26gt%3B%20%20%20%20%26lt%3B%2Fspan%26gt%3B%26lt%3Bspan%20class%3D%26quot%3Bpun%26quot%3B%20style%3D%26quot%3Bpadding%3A%200px%3B%20margin%3A%200px%3B%20box-sizing%3A%20border-box%3B%20color%3A%20rgb(102%2C%20102%2C%200)%3B%26quot%3B%26gt%3B-%26lt%3B%2Fspan%26gt%3B%26lt%3Bspan%20class%3D%26quot%3Bpln%26quot%3B%20style%3D%26quot%3Bpadding%3A%200px%3B%20margin%3A%200px%3B%20box-sizing%3A%20border-box%3B%20color%3A%20rgb(0%2C%200%2C%200)%3B%26quot%3B%26gt%3B%20name%26lt%3B%2Fspan%26gt%3B%26lt%3Bspan%20class%3D%26quot%3Bpun%26quot%3B%20style%3D%26quot%3Bpadding%3A%200px%3B%20margin%3A%200px%3B%20box-sizing%3A%20border-box%3B%20color%3A%20rgb(102%2C%20102%2C%200)%3B%26quot%3B%26gt%3B%3A%26lt%3B%2Fspan%26gt%3B%26lt%3Bspan%20class%3D%26quot%3Bpln%26quot%3B%20style%3D%26quot%3Bpadding%3A%200px%3B%20margin%3A%200px%3B%20box-sizing%3A%20border-box%3B%20color%3A%20rgb(0%2C%200%2C%200)%3B%26quot%3B%26gt%3B%20lint%26lt%3B%2Fspan%26gt%3B%26lt%3B%2Fcode%26gt%3B%26lt%3B%2Fli%26gt%3B%26lt%3Bli%20class%3D%26quot%3BL1%26quot%3B%20style%3D%26quot%3Bpadding%3A%200px%3B%20margin%3A%200px%3B%20box-sizing%3A%20border-box%3B%20list-style-type%3A%20%26amp%3Bquot%3B%26amp%3Bquot%3B%3B%20background%3A%20rgb(238%2C%20238%2C%20238)%3B%26quot%3B%26gt%3B%26lt%3Bcode%20class%3D%26quot%3Blanguage-yaml%26quot%3B%20style%3D%26quot%3Bpadding%3A%200px%3B%20margin%3A%200px%3B%20box-sizing%3A%20border-box%3B%20font-family%3A%20Consolas%2C%20%26amp%3Bquot%3BYaHei%20Consolas%20Hybrid%26amp%3Bquot%3B%2C%20%26amp%3Bquot%3BMeiryo%20UI%26amp%3Bquot%3B%2C%20%26amp%3Bquot%3BMalgun%20Gothic%26amp%3Bquot%3B%2C%20%26amp%3Bquot%3BSegoe%20UI%26amp%3Bquot%3B%2C%20%26amp%3Bquot%3BTrebuchet%20MS%26amp%3Bquot%3B%2C%20Helvetica%2C%20monospace%2C%20monospace%3B%20font-size%3A%20inherit%3B%20color%3A%20inherit%3B%20overflow-wrap%3A%20normal%3B%20word-break%3A%20normal%3B%20background%3A%20none%3B%20border-radius%3A%203px%3B%20border%3A%20none%3B%20display%3A%20inline%3B%20max-width%3A%20initial%3B%20overflow%3A%20initial%3B%20line-height%3A%20inherit%3B%26quot%3B%26gt%3B%26lt%3Bspan%20class%3D%26quot%3Bpln%26quot%3B%20style%3D%26quot%3Bpadding%3A%200px%3B%20margin%3A%200px%3B%20box-sizing%3A%20border-box%3B%20color%3A%20rgb(0%2C%200%2C%200)%3B%26quot%3B%26gt%3B%20%20%20%20%20%20workspaces%26lt%3B%2Fspan%26gt%3B%26lt%3Bspan%20class%3D%26quot%3Bpun%26quot%3B%20style%3D%26quot%3Bpadding%3A%200px%3B%20margin%3A%200px%3B%20box-sizing%3A%20border-box%3B%20color%3A%20rgb(102%2C%20102%2C%200)%3B%26quot%3B%26gt%3B%3A%26lt%3B%2Fspan%26gt%3B%26lt%3B%2Fcode%26gt%3B%26lt%3B%2Fli%26gt%3B%26lt%3Bli%20class%3D%26quot%3BL2%26quot%3B%20style%3D%26quot%3Bpadding%3A%200px%3B%20margin%3A%200px%3B%20box-sizing%3A%20border-box%3B%20list-style-type%3A%20%26amp%3Bquot%3B%26amp%3Bquot%3B%3B%26quot%3B%26gt%3B%26lt%3Bcode%20class%3D%26quot%3Blanguage-yaml%26quot%3B%20style%3D%26quot%3Bpadding%3A%200px%3B%20margin%3A%200px%3B%20box-sizing%3A%20border-box%3B%20font-family%3A%20Consolas%2C%20%26amp%3Bquot%3BYaHei%20Consolas%20Hybrid%26amp%3Bquot%3B%2C%20%26amp%3Bquot%3BMeiryo%20UI%26amp%3Bquot%3B%2C%20%26amp%3Bquot%3BMalgun%20Gothic%26amp%3Bquot%3B%2C%20%26amp%3Bquot%3BSegoe%20UI%26amp%3Bquot%3B%2C%20%26amp%3Bquot%3BTrebuchet%20MS%26amp%3Bquot%3B%2C%20Helvetica%2C%20monospace%2C%20monospace%3B%20font-size%3A%20inherit%3B%20color%3A%20inherit%3B%20overflow-wrap%3A%20normal%3B%20word-break%3A%20normal%3B%20background%3A%20none%3B%20border-radius%3A%203px%3B%20border%3A%20none%3B%20display%3A%20inline%3B%20max-width%3A%20initial%3B%20overflow%3A%20initial%3B%20line-height%3A%20inherit%3B%26quot%3B%26gt%3B%26lt%3Bspan%20class%3D%26quot%3Bpln%26quot%3B%20style%3D%26quot%3Bpadding%3A%200px%3B%20margin%3A%200px%3B%20box-sizing%3A%20border-box%3B%20color%3A%20rgb(0%2C%200%2C%200)%3B%26quot%3B%26gt%3B%20%20%20%20%20%20%20%20%26lt%3B%2Fspan%26gt%3B%26lt%3Bspan%20class%3D%26quot%3Bpun%26quot%3B%20style%3D%26quot%3Bpadding%3A%200px%3B%20margin%3A%200px%3B%20box-sizing%3A%20border-box%3B%20color%3A%20rgb(102%2C%20102%2C%200)%3B%26quot%3B%26gt%3B-%26lt%3B%2Fspan%26gt%3B%26lt%3Bspan%20class%3D%26quot%3Bpln%26quot%3B%20style%3D%26quot%3Bpadding%3A%200px%3B%20margin%3A%200px%3B%20box-sizing%3A%20border-box%3B%20color%3A%20rgb(0%2C%200%2C%200)%3B%26quot%3B%26gt%3B%20name%26lt%3B%2Fspan%26gt%3B%26lt%3Bspan%20class%3D%26quot%3Bpun%26quot%3B%20style%3D%26quot%3Bpadding%3A%200px%3B%20margin%3A%200px%3B%20box-sizing%3A%20border-box%3B%20color%3A%20rgb(102%2C%20102%2C%200)%3B%26quot%3B%26gt%3B%3A%26lt%3B%2Fspan%26gt%3B%26lt%3Bspan%20class%3D%26quot%3Bpln%26quot%3B%20style%3D%26quot%3Bpadding%3A%200px%3B%20margin%3A%200px%3B%20box-sizing%3A%20border-box%3B%20color%3A%20rgb(0%2C%200%2C%200)%3B%26quot%3B%26gt%3B%20source%26lt%3B%2Fspan%26gt%3B%26lt%3B%2Fcode%26gt%3B%26lt%3B%2Fli%26gt%3B%26lt%3Bli%20class%3D%26quot%3BL3%26quot%3B%20style%3D%26quot%3Bpadding%3A%200px%3B%20margin%3A%200px%3B%20box-sizing%3A%20border-box%3B%20list-style-type%3A%20%26amp%3Bquot%3B%26amp%3Bquot%3B%3B%20background%3A%20rgb(238%2C%20238%2C%20238)%3B%26quot%3B%26gt%3B%26lt%3Bcode%20class%3D%26quot%3Blanguage-yaml%26quot%3B%20style%3D%26quot%3Bpadding%3A%200px%3B%20margin%3A%200px%3B%20box-sizing%3A%20border-box%3B%20font-family%3A%20Consolas%2C%20%26amp%3Bquot%3BYaHei%20Consolas%20Hybrid%26amp%3Bquot%3B%2C%20%26amp%3Bquot%3BMeiryo%20UI%26amp%3Bquot%3B%2C%20%26amp%3Bquot%3BMalgun%20Gothic%26amp%3Bquot%3B%2C%20%26amp%3Bquot%3BSegoe%20UI%26amp%3Bquot%3B%2C%20%26amp%3Bquot%3BTrebuchet%20MS%26amp%3Bquot%3B%2C%20Helvetica%2C%20monospace%2C%20monospace%3B%20font-size%3A%20inherit%3B%20color%3A%20inherit%3B%20overflow-wrap%3A%20normal%3B%20word-break%3A%20normal%3B%20background%3A%20none%3B%20border-radius%3A%203px%3B%20border%3A%20none%3B%20display%3A%20inline%3B%20max-width%3A%20initial%3B%20overflow%3A%20initial%3B%20line-height%3A%20inherit%3B%26quot%3B%26gt%3B%26lt%3Bspan%20class%3D%26quot%3Bpln%26quot%3B%20style%3D%26quot%3Bpadding%3A%200px%3B%20margin%3A%200px%3B%20box-sizing%3A%20border-box%3B%20color%3A%20rgb(0%2C%200%2C%200)%3B%26quot%3B%26gt%3B%20%20%20%20%20%20%20%20%20%20workspace%26lt%3B%2Fspan%26gt%3B%26lt%3Bspan%20class%3D%26quot%3Bpun%26quot%3B%20style%3D%26quot%3Bpadding%3A%200px%3B%20margin%3A%200px%3B%20box-sizing%3A%20border-box%3B%20color%3A%20rgb(102%2C%20102%2C%200)%3B%26quot%3B%26gt%3B%3A%26lt%3B%2Fspan%26gt%3B%26lt%3Bspan%20class%3D%26quot%3Bpln%26quot%3B%20style%3D%26quot%3Bpadding%3A%200px%3B%20margin%3A%200px%3B%20box-sizing%3A%20border-box%3B%20color%3A%20rgb(0%2C%200%2C%200)%3B%26quot%3B%26gt%3B%20pipeline%26lt%3B%2Fspan%26gt%3B%26lt%3Bspan%20class%3D%26quot%3Bpun%26quot%3B%20style%3D%26quot%3Bpadding%3A%200px%3B%20margin%3A%200px%3B%20box-sizing%3A%20border-box%3B%20color%3A%20rgb(102%2C%20102%2C%200)%3B%26quot%3B%26gt%3B-%26lt%3B%2Fspan%26gt%3B%26lt%3Bspan%20class%3D%26quot%3Bpln%26quot%3B%20style%3D%26quot%3Bpadding%3A%200px%3B%20margin%3A%200px%3B%20box-sizing%3A%20border-box%3B%20color%3A%20rgb(0%2C%200%2C%200)%3B%26quot%3B%26gt%3Bworkspace%26lt%3B%2Fspan%26gt%3B%26lt%3B%2Fcode%26gt%3B%26lt%3B%2Fli%26gt%3B%26lt%3Bli%20class%3D%26quot%3BL4%26quot%3B%20style%3D%26quot%3Bpadding%3A%200px%3B%20margin%3A%200px%3B%20box-sizing%3A%20border-box%3B%20list-style-type%3A%20%26amp%3Bquot%3B%26amp%3Bquot%3B%3B%26quot%3B%26gt%3B%26lt%3Bcode%20class%3D%26quot%3Blanguage-yaml%26quot%3B%20style%3D%26quot%3Bpadding%3A%200px%3B%20margin%3A%200px%3B%20box-sizing%3A%20border-box%3B%20font-family%3A%20Consolas%2C%20%26amp%3Bquot%3BYaHei%20Consolas%20Hybrid%26amp%3Bquot%3B%2C%20%26amp%3Bquot%3BMeiryo%20UI%26amp%3Bquot%3B%2C%20%26amp%3Bquot%3BMalgun%20Gothic%26amp%3Bquot%3B%2C%20%26amp%3Bquot%3BSegoe%20UI%26amp%3Bquot%3B%2C%20%26amp%3Bquot%3BTrebuchet%20MS%26amp%3Bquot%3B%2C%20Helvetica%2C%20monospace%2C%20monospace%3B%20font-size%3A%20inherit%3B%20color%3A%20inherit%3B%20overflow-wrap%3A%20normal%3B%20word-break%3A%20normal%3B%20background%3A%20none%3B%20border-radius%3A%203px%3B%20border%3A%20none%3B%20display%3A%20inline%3B%20max-width%3A%20initial%3B%20overflow%3A%20initial%3B%20line-height%3A%20inherit%3B%26quot%3B%26gt%3B%26lt%3Bspan%20class%3D%26quot%3Bpln%26quot%3B%20style%3D%26quot%3Bpadding%3A%200px%3B%20margin%3A%200px%3B%20box-sizing%3A%20border-box%3B%20color%3A%20rgb(0%2C%200%2C%200)%3B%26quot%3B%26gt%3B%20%20%20%20%20%20taskRef%26lt%3B%2Fspan%26gt%3B%26lt%3Bspan%20class%3D%26quot%3Bpun%26quot%3B%20style%3D%26quot%3Bpadding%3A%200px%3B%20margin%3A%200px%3B%20box-sizing%3A%20border-box%3B%20color%3A%20rgb(102%2C%20102%2C%200)%3B%26quot%3B%26gt%3B%3A%26lt%3B%2Fspan%26gt%3B%26lt%3B%2Fcode%26gt%3B%26lt%3B%2Fli%26gt%3B%26lt%3Bli%20class%3D%26quot%3BL5%26quot%3B%20style%3D%26quot%3Bpadding%3A%200px%3B%20margin%3A%200px%3B%20box-sizing%3A%20border-box%3B%20list-style-type%3A%20%26amp%3Bquot%3B%26amp%3Bquot%3B%3B%20background%3A%20rgb(238%2C%20238%2C%20238)%3B%26quot%3B%26gt%3B%26lt%3Bcode%20class%3D%26quot%3Blanguage-yaml%26quot%3B%20style%3D%26quot%3Bpadding%3A%200px%3B%20margin%3A%200px%3B%20box-sizing%3A%20border-box%3B%20font-family%3A%20Consolas%2C%20%26amp%3Bquot%3BYaHei%20Consolas%20Hybrid%26amp%3Bquot%3B%2C%20%26amp%3Bquot%3BMeiryo%20UI%26amp%3Bquot%3B%2C%20%26amp%3Bquot%3BMalgun%20Gothic%26amp%3Bquot%3B%2C%20%26amp%3Bquot%3BSegoe%20UI%26amp%3Bquot%3B%2C%20%26amp%3Bquot%3BTrebuchet%20MS%26amp%3Bquot%3B%2C%20Helvetica%2C%20monospace%2C%20monospace%3B%20font-size%3A%20inherit%3B%20color%3A%20inherit%3B%20overflow-wrap%3A%20normal%3B%20word-break%3A%20normal%3B%20background%3A%20none%3B%20border-radius%3A%203px%3B%20border%3A%20none%3B%20display%3A%20inline%3B%20max-width%3A%20initial%3B%20overflow%3A%20initial%3B%20line-height%3A%20inherit%3B%26quot%3B%26gt%3B%26lt%3Bspan%20class%3D%26quot%3Bpln%26quot%3B%20style%3D%26quot%3Bpadding%3A%200px%3B%20margin%3A%200px%3B%20box-sizing%3A%20border-box%3B%20color%3A%20rgb(0%2C%200%2C%200)%3B%26quot%3B%26gt%3B%20%20%20%20%20%20%20%20name%26lt%3B%2Fspan%26gt%3B%26lt%3Bspan%20class%3D%26quot%3Bpun%26quot%3B%20style%3D%26quot%3Bpadding%3A%200px%3B%20margin%3A%200px%3B%20box-sizing%3A%20border-box%3B%20color%3A%20rgb(102%2C%20102%2C%200)%3B%26quot%3B%26gt%3B%3A%26lt%3B%2Fspan%26gt%3B%26lt%3Bspan%20class%3D%26quot%3Bpln%26quot%3B%20style%3D%26quot%3Bpadding%3A%200px%3B%20margin%3A%200px%3B%20box-sizing%3A%20border-box%3B%20color%3A%20rgb(0%2C%200%2C%200)%3B%26quot%3B%26gt%3B%20flake8%26lt%3B%2Fspan%26gt%3B%26lt%3B%2Fcode%26gt%3B%26lt%3B%2Fli%26gt%3B%26lt%3Bli%20class%3D%26quot%3BL6%26quot%3B%20style%3D%26quot%3Bpadding%3A%200px%3B%20margin%3A%200px%3B%20box-sizing%3A%20border-box%3B%20list-style-type%3A%20%26amp%3Bquot%3B%26amp%3Bquot%3B%3B%26quot%3B%26gt%3B%26lt%3Bcode%20class%3D%26quot%3Blanguage-yaml%26quot%3B%20style%3D%26quot%3Bpadding%3A%200px%3B%20margin%3A%200px%3B%20box-sizing%3A%20border-box%3B%20font-family%3A%20Consolas%2C%20%26amp%3Bquot%3BYaHei%20Consolas%20Hybrid%26amp%3Bquot%3B%2C%20%26amp%3Bquot%3BMeiryo%20UI%26amp%3Bquot%3B%2C%20%26amp%3Bquot%3BMalgun%20Gothic%26amp%3Bquot%3B%2C%20%26amp%3Bquot%3BSegoe%20UI%26amp%3Bquot%3B%2C%20%26amp%3Bquot%3BTrebuchet%20MS%26amp%3Bquot%3B%2C%20Helvetica%2C%20monospace%2C%20monospace%3B%20font-size%3A%20inherit%3B%20color%3A%20inherit%3B%20overflow-wrap%3A%20normal%3B%20word-break%3A%20normal%3B%20background%3A%20none%3B%20border-radius%3A%203px%3B%20border%3A%20none%3B%20display%3A%20inline%3B%20max-width%3A%20initial%3B%20overflow%3A%20initial%3B%20line-height%3A%20inherit%3B%26quot%3B%26gt%3B%26lt%3Bspan%20class%3D%26quot%3Bpln%26quot%3B%20style%3D%26quot%3Bpadding%3A%200px%3B%20margin%3A%200px%3B%20box-sizing%3A%20border-box%3B%20color%3A%20rgb(0%2C%200%2C%200)%3B%26quot%3B%26gt%3B%20%20%20%20%20%20%26lt%3B%2Fspan%26gt%3B%26lt%3Bspan%20class%3D%26quot%3Bkwd%26quot%3B%20style%3D%26quot%3Bpadding%3A%200px%3B%20margin%3A%200px%3B%20box-sizing%3A%20border-box%3B%20color%3A%20rgb(0%2C%200%2C%20136)%3B%26quot%3B%26gt%3Bparams%26lt%3B%2Fspan%26gt%3B%26lt%3Bspan%20class%3D%26quot%3Bpun%26quot%3B%20style%3D%26quot%3Bpadding%3A%200px%3B%20margin%3A%200px%3B%20box-sizing%3A%20border-box%3B%20color%3A%20rgb(102%2C%20102%2C%200)%3B%26quot%3B%26gt%3B%3A%26lt%3B%2Fspan%26gt%3B%26lt%3B%2Fcode%26gt%3B%26lt%3B%2Fli%26gt%3B%26lt%3Bli%20class%3D%26quot%3BL7%26quot%3B%20style%3D%26quot%3Bpadding%3A%200px%3B%20margin%3A%200px%3B%20box-sizing%3A%20border-box%3B%20list-style-type%3A%20%26amp%3Bquot%3B%26amp%3Bquot%3B%3B%20background%3A%20rgb(238%2C%20238%2C%20238)%3B%26quot%3B%26gt%3B%26lt%3Bcode%20class%3D%26quot%3Blanguage-yaml%26quot%3B%20style%3D%26quot%3Bpadding%3A%200px%3B%20margin%3A%200px%3B%20box-sizing%3A%20border-box%3B%20font-family%3A%20Consolas%2C%20%26amp%3Bquot%3BYaHei%20Consolas%20Hybrid%26amp%3Bquot%3B%2C%20%26amp%3Bquot%3BMeiryo%20UI%26amp%3Bquot%3B%2C%20%26amp%3Bquot%3BMalgun%20Gothic%26amp%3Bquot%3B%2C%20%26amp%3Bquot%3BSegoe%20UI%26amp%3Bquot%3B%2C%20%26amp%3Bquot%3BTrebuchet%20MS%26amp%3Bquot%3B%2C%20Helvetica%2C%20monospace%2C%20monospace%3B%20font-size%3A%20inherit%3B%20color%3A%20inherit%3B%20overflow-wrap%3A%20normal%3B%20word-break%3A%20normal%3B%20background%3A%20none%3B%20border-radius%3A%203px%3B%20border%3A%20none%3B%20display%3A%20inline%3B%20max-width%3A%20initial%3B%20overflow%3A%20initial%3B%20line-height%3A%20inherit%3B%26quot%3B%26gt%3B%26lt%3Bspan%20class%3D%26quot%3Bpln%26quot%3B%20style%3D%26quot%3Bpadding%3A%200px%3B%20margin%3A%200px%3B%20box-sizing%3A%20border-box%3B%20color%3A%20rgb(0%2C%200%2C%200)%3B%26quot%3B%26gt%3B%20%20%20%20%20%20%26lt%3B%2Fspan%26gt%3B%26lt%3Bspan%20class%3D%26quot%3Bpun%26quot%3B%20style%3D%26quot%3Bpadding%3A%200px%3B%20margin%3A%200px%3B%20box-sizing%3A%20border-box%3B%20color%3A%20rgb(102%2C%20102%2C%200)%3B%26quot%3B%26gt%3B-%26lt%3B%2Fspan%26gt%3B%26lt%3Bspan%20class%3D%26quot%3Bpln%26quot%3B%20style%3D%26quot%3Bpadding%3A%200px%3B%20margin%3A%200px%3B%20box-sizing%3A%20border-box%3B%20color%3A%20rgb(0%2C%200%2C%200)%3B%26quot%3B%26gt%3B%20name%26lt%3B%2Fspan%26gt%3B%26lt%3Bspan%20class%3D%26quot%3Bpun%26quot%3B%20style%3D%26quot%3Bpadding%3A%200px%3B%20margin%3A%200px%3B%20box-sizing%3A%20border-box%3B%20color%3A%20rgb(102%2C%20102%2C%200)%3B%26quot%3B%26gt%3B%3A%26lt%3B%2Fspan%26gt%3B%26lt%3Bspan%20class%3D%26quot%3Bpln%26quot%3B%20style%3D%26quot%3Bpadding%3A%200px%3B%20margin%3A%200px%3B%20box-sizing%3A%20border-box%3B%20color%3A%20rgb(0%2C%200%2C%200)%3B%26quot%3B%26gt%3B%20image%26lt%3B%2Fspan%26gt%3B%26lt%3B%2Fcode%26gt%3B%26lt%3B%2Fli%26gt%3B%26lt%3Bli%20class%3D%26quot%3BL8%26quot%3B%20style%3D%26quot%3Bpadding%3A%200px%3B%20margin%3A%200px%3B%20box-sizing%3A%20border-box%3B%20list-style-type%3A%20%26amp%3Bquot%3B%26amp%3Bquot%3B%3B%26quot%3B%26gt%3B%26lt%3Bcode%20class%3D%26quot%3Blanguage-yaml%26quot%3B%20style%3D%26quot%3Bpadding%3A%200px%3B%20margin%3A%200px%3B%20box-sizing%3A%20border-box%3B%20font-family%3A%20Consolas%2C%20%26amp%3Bquot%3BYaHei%20Consolas%20Hybrid%26amp%3Bquot%3B%2C%20%26amp%3Bquot%3BMeiryo%20UI%26amp%3Bquot%3B%2C%20%26amp%3Bquot%3BMalgun%20Gothic%26amp%3Bquot%3B%2C%20%26amp%3Bquot%3BSegoe%20UI%26amp%3Bquot%3B%2C%20%26amp%3Bquot%3BTrebuchet%20MS%26amp%3Bquot%3B%2C%20Helvetica%2C%20monospace%2C%20monospace%3B%20font-size%3A%20inherit%3B%20color%3A%20inherit%3B%20overflow-wrap%3A%20normal%3B%20word-break%3A%20normal%3B%20background%3A%20none%3B%20border-radius%3A%203px%3B%20border%3A%20none%3B%20display%3A%20inline%3B%20max-width%3A%20initial%3B%20overflow%3A%20initial%3B%20line-height%3A%20inherit%3B%26quot%3B%26gt%3B%26lt%3Bspan%20class%3D%26quot%3Bpln%26quot%3B%20style%3D%26quot%3Bpadding%3A%200px%3B%20margin%3A%200px%3B%20box-sizing%3A%20border-box%3B%20color%3A%20rgb(0%2C%200%2C%200)%3B%26quot%3B%26gt%3B%20%20%20%20%20%20%20%20value%26lt%3B%2Fspan%26gt%3B%26lt%3Bspan%20class%3D%26quot%3Bpun%26quot%3B%20style%3D%26quot%3Bpadding%3A%200px%3B%20margin%3A%200px%3B%20box-sizing%3A%20border-box%3B%20color%3A%20rgb(102%2C%20102%2C%200)%3B%26quot%3B%26gt%3B%3A%26lt%3B%2Fspan%26gt%3B%26lt%3Bspan%20class%3D%26quot%3Bpln%26quot%3B%20style%3D%26quot%3Bpadding%3A%200px%3B%20margin%3A%200px%3B%20box-sizing%3A%20border-box%3B%20color%3A%20rgb(0%2C%200%2C%200)%3B%26quot%3B%26gt%3B%20%26lt%3B%2Fspan%26gt%3B%26lt%3Bspan%20class%3D%26quot%3Bstr%26quot%3B%20style%3D%26quot%3Bpadding%3A%200px%3B%20margin%3A%200px%3B%20box-sizing%3A%20border-box%3B%20color%3A%20rgb(0%2C%20136%2C%200)%3B%26quot%3B%26gt%3B%26quot%3Bpython%3A3.9-slim%26quot%3B%26lt%3B%2Fspan%26gt%3B%26lt%3B%2Fcode%26gt%3B%26lt%3B%2Fli%26gt%3B%26lt%3Bli%20class%3D%26quot%3BL9%26quot%3B%20style%3D%26quot%3Bpadding%3A%200px%3B%20margin%3A%200px%3B%20box-sizing%3A%20border-box%3B%20background%3A%20rgb(238%2C%20238%2C%20238)%3B%20list-style-type%3A%20%26amp%3Bquot%3B%26amp%3Bquot%3B%3B%26quot%3B%26gt%3B%26lt%3Bcode%20class%3D%26quot%3Blanguage-yaml%26quot%3B%20style%3D%26quot%3Bpadding%3A%200px%3B%20margin%3A%200px%3B%20box-sizing%3A%20border-box%3B%20font-family%3A%20Consolas%2C%20%26amp%3Bquot%3BYaHei%20Consolas%20Hybrid%26amp%3Bquot%3B%2C%20%26amp%3Bquot%3BMeiryo%20UI%26amp%3Bquot%3B%2C%20%26amp%3Bquot%3BMalgun%20Gothic%26amp%3Bquot%3B%2C%20%26amp%3Bquot%3BSegoe%20UI%26amp%3Bquot%3B%2C%20%26amp%3Bquot%3BTrebuchet%20MS%26amp%3Bquot%3B%2C%20Helvetica%2C%20monospace%2C%20monospace%3B%20font-size%3A%20inherit%3B%20color%3A%20inherit%3B%20overflow-wrap%3A%20normal%3B%20word-break%3A%20normal%3B%20background%3A%20none%3B%20border-radius%3A%203px%3B%20border%3A%20none%3B%20display%3A%20inline%3B%20max-width%3A%20initial%3B%20overflow%3A%20initial%3B%20line-height%3A%20inherit%3B%26quot%3B%26gt%3B%26lt%3Bspan%20class%3D%26quot%3Bpln%26quot%3B%20style%3D%26quot%3Bpadding%3A%200px%3B%20margin%3A%200px%3B%20box-sizing%3A%20border-box%3B%20color%3A%20rgb(0%2C%200%2C%200)%3B%26quot%3B%26gt%3B%20%20%20%20%20%20%26lt%3B%2Fspan%26gt%3B%26lt%3Bspan%20class%3D%26quot%3Bpun%26quot%3B%20style%3D%26quot%3Bpadding%3A%200px%3B%20margin%3A%200px%3B%20box-sizing%3A%20border-box%3B%20color%3A%20rgb(102%2C%20102%2C%200)%3B%26quot%3B%26gt%3B-%26lt%3B%2Fspan%26gt%3B%26lt%3Bspan%20class%3D%26quot%3Bpln%26quot%3B%20style%3D%26quot%3Bpadding%3A%200px%3B%20margin%3A%200px%3B%20box-sizing%3A%20border-box%3B%20color%3A%20rgb(0%2C%200%2C%200)%3B%26quot%3B%26gt%3B%20name%26lt%3B%2Fspan%26gt%3B%26lt%3Bspan%20class%3D%26quot%3Bpun%26quot%3B%20style%3D%26quot%3Bpadding%3A%200px%3B%20margin%3A%200px%3B%20box-sizing%3A%20border-box%3B%20color%3A%20rgb(102%2C%20102%2C%200)%3B%26quot%3B%26gt%3B%3A%26lt%3B%2Fspan%26gt%3B%26lt%3Bspan%20class%3D%26quot%3Bpln%26quot%3B%20style%3D%26quot%3Bpadding%3A%200px%3B%20margin%3A%200px%3B%20box-sizing%3A%20border-box%3B%20color%3A%20rgb(0%2C%200%2C%200)%3B%26quot%3B%26gt%3B%20args%26lt%3B%2Fspan%26gt%3B%26lt%3B%2Fcode%26gt%3B%26lt%3B%2Fli%26gt%3B%26lt%3Bli%20class%3D%26quot%3BL0%26quot%3B%20style%3D%26quot%3Bpadding%3A%200px%3B%20margin%3A%200px%3B%20box-sizing%3A%20border-box%3B%20list-style-type%3A%20%26amp%3Bquot%3B%26amp%3Bquot%3B%3B%26quot%3B%26gt%3B%26lt%3Bcode%20class%3D%26quot%3Blanguage-yaml%26quot%3B%20style%3D%26quot%3Bpadding%3A%200px%3B%20margin%3A%200px%3B%20box-sizing%3A%20border-box%3B%20font-family%3A%20Consolas%2C%20%26amp%3Bquot%3BYaHei%20Consolas%20Hybrid%26amp%3Bquot%3B%2C%20%26amp%3Bquot%3BMeiryo%20UI%26amp%3Bquot%3B%2C%20%26amp%3Bquot%3BMalgun%20Gothic%26amp%3Bquot%3B%2C%20%26amp%3Bquot%3BSegoe%20UI%26amp%3Bquot%3B%2C%20%26amp%3Bquot%3BTrebuchet%20MS%26amp%3Bquot%3B%2C%20Helvetica%2C%20monospace%2C%20monospace%3B%20font-size%3A%20inherit%3B%20color%3A%20inherit%3B%20overflow-wrap%3A%20normal%3B%20word-break%3A%20normal%3B%20background%3A%20none%3B%20border-radius%3A%203px%3B%20border%3A%20none%3B%20display%3A%20inline%3B%20max-width%3A%20initial%3B%20overflow%3A%20initial%3B%20line-height%3A%20inherit%3B%26quot%3B%26gt%3B%26lt%3Bspan%20class%3D%26quot%3Bpln%26quot%3B%20style%3D%26quot%3Bpadding%3A%200px%3B%20margin%3A%200px%3B%20box-sizing%3A%20border-box%3B%20color%3A%20rgb(0%2C%200%2C%200)%3B%26quot%3B%26gt%3B%20%20%20%20%20%20%20%20value%26lt%3B%2Fspan%26gt%3B%26lt%3Bspan%20class%3D%26quot%3Bpun%26quot%3B%20style%3D%26quot%3Bpadding%3A%200px%3B%20margin%3A%200px%3B%20box-sizing%3A%20border-box%3B%20color%3A%20rgb(102%2C%20102%2C%200)%3B%26quot%3B%26gt%3B%3A%26lt%3B%2Fspan%26gt%3B%26lt%3Bspan%20class%3D%26quot%3Bpln%26quot%3B%20style%3D%26quot%3Bpadding%3A%200px%3B%20margin%3A%200px%3B%20box-sizing%3A%20border-box%3B%20color%3A%20rgb(0%2C%200%2C%200)%3B%26quot%3B%26gt%3B%20%26lt%3B%2Fspan%26gt%3B%26lt%3Bspan%20class%3D%26quot%3Bpun%26quot%3B%20style%3D%26quot%3Bpadding%3A%200px%3B%20margin%3A%200px%3B%20box-sizing%3A%20border-box%3B%20color%3A%20rgb(102%2C%20102%2C%200)%3B%26quot%3B%26gt%3B%5B%26lt%3B%2Fspan%26gt%3B%26lt%3Bspan%20class%3D%26quot%3Bstr%26quot%3B%20style%3D%26quot%3Bpadding%3A%200px%3B%20margin%3A%200px%3B%20box-sizing%3A%20border-box%3B%20color%3A%20rgb(0%2C%20136%2C%200)%3B%26quot%3B%26gt%3B%26quot%3B--count%26quot%3B%26lt%3B%2Fspan%26gt%3B%26lt%3Bspan%20class%3D%26quot%3Bpun%26quot%3B%20style%3D%26quot%3Bpadding%3A%200px%3B%20margin%3A%200px%3B%20box-sizing%3A%20border-box%3B%20color%3A%20rgb(102%2C%20102%2C%200)%3B%26quot%3B%26gt%3B%2C%26lt%3B%2Fspan%26gt%3B%26lt%3Bspan%20class%3D%26quot%3Bstr%26quot%3B%20style%3D%26quot%3Bpadding%3A%200px%3B%20margin%3A%200px%3B%20box-sizing%3A%20border-box%3B%20color%3A%20rgb(0%2C%20136%2C%200)%3B%26quot%3B%26gt%3B%26quot%3B--max-complexity%3D10%26quot%3B%26lt%3B%2Fspan%26gt%3B%26lt%3Bspan%20class%3D%26quot%3Bpun%26quot%3B%20style%3D%26quot%3Bpadding%3A%200px%3B%20margin%3A%200px%3B%20box-sizing%3A%20border-box%3B%20color%3A%20rgb(102%2C%20102%2C%200)%3B%26quot%3B%26gt%3B%2C%26lt%3B%2Fspan%26gt%3B%26lt%3Bspan%20class%3D%26quot%3Bstr%26quot%3B%20style%3D%26quot%3Bpadding%3A%200px%3B%20margin%3A%200px%3B%20box-sizing%3A%20border-box%3B%20color%3A%20rgb(0%2C%20136%2C%200)%3B%26quot%3B%26gt%3B%26quot%3B--max-line-length%3D127%26quot%3B%26lt%3B%2Fspan%26gt%3B%26lt%3Bspan%20class%3D%26quot%3Bpun%26quot%3B%20style%3D%26quot%3Bpadding%3A%200px%3B%20margin%3A%200px%3B%20box-sizing%3A%20border-box%3B%20color%3A%20rgb(102%2C%20102%2C%200)%3B%26quot%3B%26gt%3B%2C%26lt%3B%2Fspan%26gt%3B%26lt%3Bspan%20class%3D%26quot%3Bstr%26quot%3B%20style%3D%26quot%3Bpadding%3A%200px%3B%20margin%3A%200px%3B%20box-sizing%3A%20border-box%3B%20color%3A%20rgb(0%2C%20136%2C%200)%3B%26quot%3B%26gt%3B%26quot%3B--statistics%26quot%3B%26lt%3B%2Fspan%26gt%3B%26lt%3Bspan%20class%3D%26quot%3Bpun%26quot%3B%20style%3D%26quot%3Bpadding%3A%200px%3B%20margin%3A%200px%3B%20box-sizing%3A%20border-box%3B%20color%3A%20rgb(102%2C%20102%2C%200)%3B%26quot%3B%26gt%3B%5D%26lt%3B%2Fspan%26gt%3B%26lt%3B%2Fcode%26gt%3B%26lt%3B%2Fli%26gt%3B%26lt%3Bli%20class%3D%26quot%3BL1%26quot%3B%20style%3D%26quot%3Bpadding%3A%200px%3B%20margin%3A%200px%3B%20box-sizing%3A%20border-box%3B%20list-style-type%3A%20%26amp%3Bquot%3B%26amp%3Bquot%3B%3B%20background%3A%20rgb(238%2C%20238%2C%20238)%3B%26quot%3B%26gt%3B%26lt%3Bcode%20class%3D%26quot%3Blanguage-yaml%26quot%3B%20style%3D%26quot%3Bpadding%3A%200px%3B%20margin%3A%200px%3B%20box-sizing%3A%20border-box%3B%20font-family%3A%20Consolas%2C%20%26amp%3Bquot%3BYaHei%20Consolas%20Hybrid%26amp%3Bquot%3B%2C%20%26amp%3Bquot%3BMeiryo%20UI%26amp%3Bquot%3B%2C%20%26amp%3Bquot%3BMalgun%20Gothic%26amp%3Bquot%3B%2C%20%26amp%3Bquot%3BSegoe%20UI%26amp%3Bquot%3B%2C%20%26amp%3Bquot%3BTrebuchet%20MS%26amp%3Bquot%3B%2C%20Helvetica%2C%20monospace%2C%20monospace%3B%20font-size%3A%20inherit%3B%20color%3A%20inherit%3B%20overflow-wrap%3A%20normal%3B%20word-break%3A%20normal%3B%20background%3A%20none%3B%20border-radius%3A%203px%3B%20border%3A%20none%3B%20display%3A%20inline%3B%20max-width%3A%20initial%3B%20overflow%3A%20initial%3B%20line-height%3A%20inherit%3B%26quot%3B%26gt%3B%26lt%3Bspan%20class%3D%26quot%3Bpln%26quot%3B%20style%3D%26quot%3Bpadding%3A%200px%3B%20margin%3A%200px%3B%20box-sizing%3A%20border-box%3B%20color%3A%20rgb(0%2C%200%2C%200)%3B%26quot%3B%26gt%3B%20%20%20%20%20%20runAfter%26lt%3B%2Fspan%26gt%3B%26lt%3Bspan%20class%3D%26quot%3Bpun%26quot%3B%20style%3D%26quot%3Bpadding%3A%200px%3B%20margin%3A%200px%3B%20box-sizing%3A%20border-box%3B%20color%3A%20rgb(102%2C%20102%2C%200)%3B%26quot%3B%26gt%3B%3A%26lt%3B%2Fspan%26gt%3B%26lt%3B%2Fcode%26gt%3B%26lt%3B%2Fli%26gt%3B%26lt%3Bli%20class%3D%26quot%3BL2%26quot%3B%20style%3D%26quot%3Bpadding%3A%200px%3B%20margin%3A%200px%3B%20box-sizing%3A%20border-box%3B%20list-style-type%3A%20%26amp%3Bquot%3B%26amp%3Bquot%3B%3B%26quot%3B%26gt%3B%26lt%3Bcode%20class%3D%26quot%3Blanguage-yaml%26quot%3B%20style%3D%26quot%3Bpadding%3A%200px%3B%20margin%3A%200px%3B%20box-sizing%3A%20border-box%3B%20font-family%3A%20Consolas%2C%20%26amp%3Bquot%3BYaHei%20Consolas%20Hybrid%26amp%3Bquot%3B%2C%20%26amp%3Bquot%3BMeiryo%20UI%26amp%3Bquot%3B%2C%20%26amp%3Bquot%3BMalgun%20Gothic%26amp%3Bquot%3B%2C%20%26amp%3Bquot%3BSegoe%20UI%26amp%3Bquot%3B%2C%20%26amp%3Bquot%3BTrebuchet%20MS%26amp%3Bquot%3B%2C%20Helvetica%2C%20monospace%2C%20monospace%3B%20font-size%3A%20inherit%3B%20color%3A%20inherit%3B%20overflow-wrap%3A%20normal%3B%20word-break%3A%20normal%3B%20background%3A%20none%3B%20border-radius%3A%203px%3B%20border%3A%20none%3B%20display%3A%20inline%3B%20max-width%3A%20initial%3B%20overflow%3A%20initial%3B%20line-height%3A%20inherit%3B%26quot%3B%26gt%3B%26lt%3Bspan%20class%3D%26quot%3Bpln%26quot%3B%20style%3D%26quot%3Bpadding%3A%200px%3B%20margin%3A%200px%3B%20box-sizing%3A%20border-box%3B%20color%3A%20rgb(0%2C%200%2C%200)%3B%26quot%3B%26gt%3B%20%20%20%20%20%20%20%20%26lt%3B%2Fspan%26gt%3B%26lt%3Bspan%20class%3D%26quot%3Bpun%26quot%3B%20style%3D%26quot%3Bpadding%3A%200px%3B%20margin%3A%200px%3B%20box-sizing%3A%20border-box%3B%20color%3A%20rgb(102%2C%20102%2C%200)%3B%26quot%3B%26gt%3B-%26lt%3B%2Fspan%26gt%3B%26lt%3Bspan%20class%3D%26quot%3Bpln%26quot%3B%20style%3D%26quot%3Bpadding%3A%200px%3B%20margin%3A%200px%3B%20box-sizing%3A%20border-box%3B%20color%3A%20rgb(0%2C%200%2C%200)%3B%26quot%3B%26gt%3B%20clone%26lt%3B%2Fspan%26gt%3B%26lt%3B%2Fcode%26gt%3B%26lt%3B%2Fli%26gt%3B%26lt%3Bli%26gt%3B%26lt%3B%2Fli%26gt%3B%26lt%3B%2Fol%26gt%3B%22%20style%3D%22text%3BspacingTop%3D-5%3BwhiteSpace%3Dwrap%3Bhtml%3D1%3Balign%3Dleft%3BfontSize%3D12%3BfontFamily%3DHelvetica%3BfillColor%3D%23F5F5F5%3BstrokeColor%3Dnone%3Boverflow%3Dfill%3Bcollapsible%3D1%3BmovableLabel%3D0%3Bautosize%3D0%3BfixedWidth%3D0%3BsnapToPoint%3D0%3Bcontainer%3D0%3BmetaEdit%3D0%3BbackgroundOutline%3D0%3BresizeHeight%3D0%3BtreeFolding%3D0%3BtreeMoving%3D0%3Bcomic%3D0%3B%22%20vertex%3D%221%22%20parent%3D%221%22%3E%3CmxGeometry%20x%3D%22290%22%20y%3D%221180.5%22%20width%3D%22310%22%20height%3D%22330%22%20as%3D%22geometry%22%2F%3E%3C%2FmxCell%3E%3C%2Froot%3E%3C%2FmxGraphModel%3E&lt;/span&gt;&lt;br&gt;&lt;/li&gt;&lt;li style=&quot;font-size: 14px; white-space: pre; font-family: Consolas, &amp;quot;YaHei Consolas Hybrid&amp;quot;, &amp;quot;Meiryo UI&amp;quot;, &amp;quot;Malgun Gothic&amp;quot;, &amp;quot;Segoe UI&amp;quot;, &amp;quot;Trebuchet MS&amp;quot;, Helvetica, monospace, monospace;&quot;&gt;&lt;div style=&quot;&quot;&gt;Add openshift-client task ref with parameters&lt;br&gt;for deploy task. &lt;/div&gt;&lt;/li&gt;&lt;li style=&quot;font-size: 14px; white-space: pre; font-family: Consolas, &amp;quot;YaHei Consolas Hybrid&amp;quot;, &amp;quot;Meiryo UI&amp;quot;, &amp;quot;Malgun Gothic&amp;quot;, &amp;quot;Segoe UI&amp;quot;, &amp;quot;Trebuchet MS&amp;quot;, Helvetica, monospace, monospace;&quot;&gt;&lt;div style=&quot;&quot;&gt;The param is a script, where the oc command&lt;/div&gt;&lt;/li&gt;&lt;li style=&quot;font-size: 14px; white-space: pre; font-family: Consolas, &amp;quot;YaHei Consolas Hybrid&amp;quot;, &amp;quot;Meiryo UI&amp;quot;, &amp;quot;Malgun Gothic&amp;quot;, &amp;quot;Segoe UI&amp;quot;, &amp;quot;Trebuchet MS&amp;quot;, Helvetica, monospace, monospace;&quot;&gt;&lt;div style=&quot;&quot;&gt;is executed (deploy to kubernetes)&lt;br&gt;&lt;br&gt;&lt;/div&gt;&lt;/li&gt;&lt;li style=&quot;&quot;&gt;&lt;div&gt;&lt;span style=&quot;background-color: initial; font-family: Helvetica; font-size: 12px; white-space: normal;&quot;&gt;&lt;br&gt;&lt;/span&gt;&lt;/div&gt;&lt;/li&gt;&lt;li style=&quot;&quot;&gt;&lt;div style=&quot;background-color: rgb(255, 255, 255); line-height: 19px;&quot;&gt;&lt;div style=&quot;color: rgb(0, 0, 0); font-size: 14px; white-space: pre; font-family: Consolas, &amp;quot;Courier New&amp;quot;, monospace;&quot;&gt;&amp;nbsp; &amp;nbsp; &lt;/div&gt;&lt;ol style=&quot;padding: 5px 15px; margin: 0px; box-sizing: border-box; overflow-x: auto; flex: 1 1 0%; line-height: 1.75em;&quot; class=&quot;linenums&quot;&gt;&lt;li style=&quot;padding: 0px; margin: 0px; box-sizing: border-box; list-style-type: &amp;quot;&amp;quot;;&quot; class=&quot;L0&quot;&gt;&lt;font face=&quot;Consolas, YaHei Consolas Hybrid, Meiryo UI, Malgun Gothic, Segoe UI, Trebuchet MS, Helvetica, monospace, monospace&quot;&gt;&lt;span style=&quot;font-size: 14px; white-space: pre;&quot;&gt;    - name: deploy&lt;br&gt;      taskRef:&lt;br&gt;        name: openshift-client&lt;br&gt;        kind: ClusterTask&lt;br&gt;      params:&lt;br&gt;      - name: SCRIPT&lt;br&gt;        value: &quot;oc create deploy $(params.app-name) --image=$(params.build-image)&quot;&lt;br&gt;      runAfter:&lt;br&gt;        - build&lt;/span&gt;&lt;/font&gt;&lt;br&gt;&lt;/li&gt;&lt;/ol&gt;&lt;div style=&quot;color: rgb(0, 0, 0); font-size: 14px; white-space: pre;&quot;&gt;&lt;font face=&quot;Consolas, YaHei Consolas Hybrid, Meiryo UI, Malgun Gothic, Segoe UI, Trebuchet MS, Helvetica, monospace, monospace&quot;&gt;&lt;div&gt;&lt;span style=&quot;background-color: initial; font-family: Helvetica; font-size: 12px; white-space: normal;&quot;&gt;Add paramert app-name to spec of pipeline:&lt;/span&gt;&lt;br&gt;&lt;/div&gt;&lt;/font&gt;&lt;/div&gt;&lt;/div&gt;&lt;/li&gt;&lt;li style=&quot;&quot;&gt;&lt;div&gt;&lt;span style=&quot;background-color: initial; font-family: Helvetica; font-size: 12px; white-space: normal;&quot;&gt;&lt;ol style=&quot;padding: 5px 15px; margin: 0px; box-sizing: border-box; color: rgb(153, 153, 153); overflow-x: auto; flex: 1 1 0%; line-height: 1.75em; font-family: Consolas, &amp;quot;YaHei Consolas Hybrid&amp;quot;, &amp;quot;Meiryo UI&amp;quot;, &amp;quot;Malgun Gothic&amp;quot;, &amp;quot;Segoe UI&amp;quot;, &amp;quot;Trebuchet MS&amp;quot;, Helvetica, monospace, monospace; font-size: 14px; white-space: pre;&quot; class=&quot;linenums&quot;&gt;&lt;li style=&quot;padding: 0px; margin: 0px; box-sizing: border-box; list-style-type: &amp;quot;&amp;quot;;&quot; class=&quot;L0&quot;&gt;&lt;code style=&quot;padding: 0px; margin: 0px; box-sizing: border-box; font-family: Consolas, &amp;quot;YaHei Consolas Hybrid&amp;quot;, &amp;quot;Meiryo UI&amp;quot;, &amp;quot;Malgun Gothic&amp;quot;, &amp;quot;Segoe UI&amp;quot;, &amp;quot;Trebuchet MS&amp;quot;, Helvetica, monospace, monospace; font-size: inherit; color: inherit; overflow-wrap: normal; word-break: normal; background: none; border-radius: 3px; border: none; display: inline; max-width: initial; overflow: initial; line-height: inherit;&quot; class=&quot;language-yaml&quot;&gt;&lt;span style=&quot;padding: 0px; margin: 0px; box-sizing: border-box; color: rgb(0, 0, 0);&quot; class=&quot;pln&quot;&gt;spec&lt;/span&gt;&lt;span style=&quot;padding: 0px; margin: 0px; box-sizing: border-box; color: rgb(102, 102, 0);&quot; class=&quot;pun&quot;&gt;:&lt;/span&gt;&lt;/code&gt;&lt;/li&gt;&lt;li style=&quot;padding: 0px; margin: 0px; box-sizing: border-box; list-style-type: &amp;quot;&amp;quot;; background: rgb(238, 238, 238);&quot; class=&quot;L1&quot;&gt;&lt;code style=&quot;padding: 0px; margin: 0px; box-sizing: border-box; font-family: Consolas, &amp;quot;YaHei Consolas Hybrid&amp;quot;, &amp;quot;Meiryo UI&amp;quot;, &amp;quot;Malgun Gothic&amp;quot;, &amp;quot;Segoe UI&amp;quot;, &amp;quot;Trebuchet MS&amp;quot;, Helvetica, monospace, monospace; font-size: inherit; color: inherit; overflow-wrap: normal; word-break: normal; background: none; border-radius: 3px; border: none; display: inline; max-width: initial; overflow: initial; line-height: inherit;&quot; class=&quot;language-yaml&quot;&gt;&lt;span style=&quot;padding: 0px; margin: 0px; box-sizing: border-box; color: rgb(0, 0, 0);&quot; class=&quot;pln&quot;&gt;  &lt;/span&gt;&lt;span style=&quot;padding: 0px; margin: 0px; box-sizing: border-box; color: rgb(0, 0, 136);&quot; class=&quot;kwd&quot;&gt;params&lt;/span&gt;&lt;span style=&quot;padding: 0px; margin: 0px; box-sizing: border-box; color: rgb(102, 102, 0);&quot; class=&quot;pun&quot;&gt;:&lt;/span&gt;&lt;/code&gt;&lt;/li&gt;&lt;li style=&quot;padding: 0px; margin: 0px; box-sizing: border-box; list-style-type: &amp;quot;&amp;quot;;&quot; class=&quot;L2&quot;&gt;&lt;code style=&quot;padding: 0px; margin: 0px; box-sizing: border-box; font-family: Consolas, &amp;quot;YaHei Consolas Hybrid&amp;quot;, &amp;quot;Meiryo UI&amp;quot;, &amp;quot;Malgun Gothic&amp;quot;, &amp;quot;Segoe UI&amp;quot;, &amp;quot;Trebuchet MS&amp;quot;, Helvetica, monospace, monospace; font-size: inherit; color: inherit; overflow-wrap: normal; word-break: normal; background: none; border-radius: 3px; border: none; display: inline; max-width: initial; overflow: initial; line-height: inherit;&quot; class=&quot;language-yaml&quot;&gt;&lt;span style=&quot;padding: 0px; margin: 0px; box-sizing: border-box; color: rgb(0, 0, 0);&quot; class=&quot;pln&quot;&gt;    &lt;/span&gt;&lt;span style=&quot;padding: 0px; margin: 0px; box-sizing: border-box; color: rgb(102, 102, 0);&quot; class=&quot;pun&quot;&gt;-&lt;/span&gt;&lt;span style=&quot;padding: 0px; margin: 0px; box-sizing: border-box; color: rgb(0, 0, 0);&quot; class=&quot;pln&quot;&gt; name&lt;/span&gt;&lt;span style=&quot;padding: 0px; margin: 0px; box-sizing: border-box; color: rgb(102, 102, 0);&quot; class=&quot;pun&quot;&gt;:&lt;/span&gt;&lt;span style=&quot;padding: 0px; margin: 0px; box-sizing: border-box; color: rgb(0, 0, 0);&quot; class=&quot;pln&quot;&gt; app&lt;/span&gt;&lt;span style=&quot;padding: 0px; margin: 0px; box-sizing: border-box; color: rgb(102, 102, 0);&quot; class=&quot;pun&quot;&gt;-&lt;/span&gt;&lt;span style=&quot;padding: 0px; margin: 0px; box-sizing: border-box; color: rgb(0, 0, 0);&quot; class=&quot;pln&quot;&gt;name&lt;/span&gt;&lt;/code&gt;&lt;/li&gt;&lt;/ol&gt;&lt;/span&gt;&lt;/div&gt;&lt;/li&gt;&lt;/ol&gt;" style="text;spacingTop=-5;whiteSpace=wrap;html=1;align=left;fontSize=12;fontFamily=Helvetica;fillColor=#F5F5F5;strokeColor=none;overflow=fill;collapsible=1;movableLabel=0;autosize=0;fixedWidth=0;snapToPoint=0;container=0;metaEdit=0;backgroundOutline=0;resizeHeight=0;treeFolding=0;treeMoving=0;comic=0;" vertex="1" parent="1">
          <mxGeometry x="240" y="1200" width="370" height="500" as="geometry" />
        </mxCell>
        <mxCell id="V4-tu-K6Rpd_aIwKzUje-46" value="&lt;ol class=&quot;linenums&quot; style=&quot;padding: 5px 15px; margin: 0px; box-sizing: border-box; overflow-x: auto; flex: 1 1 0%; line-height: 1.75em; white-space: pre; font-size: 14px;&quot;&gt;&lt;li class=&quot;L0&quot; style=&quot;font-family: Consolas, &amp;quot;YaHei Consolas Hybrid&amp;quot;, &amp;quot;Meiryo UI&amp;quot;, &amp;quot;Malgun Gothic&amp;quot;, &amp;quot;Segoe UI&amp;quot;, &amp;quot;Trebuchet MS&amp;quot;, Helvetica, monospace, monospace; color: rgb(153, 153, 153); padding: 0px; margin: 0px; box-sizing: border-box; list-style-type: &amp;quot;&amp;quot;;&quot;&gt;&lt;span style=&quot;color: rgba(0, 0, 0, 0); font-family: monospace; font-size: 0px; white-space-collapse: collapse;&quot;&gt;Add Nosetest task%3CmxGraphModel%3E%3Croot%3E%3CmxCell%20id%3D%220%22%2F%3E%3CmxCell%20id%3D%221%22%20parent%3D%220%22%2F%3E%3CmxCell%20id%3D%222%22%20value%3D%22%26lt%3Bol%20class%3D%26quot%3Blinenums%26quot%3B%20style%3D%26quot%3Bpadding%3A%205px%2015px%3B%20margin%3A%200px%3B%20box-sizing%3A%20border-box%3B%20color%3A%20rgb(153%2C%20153%2C%20153)%3B%20overflow-x%3A%20auto%3B%20flex%3A%201%201%200%25%3B%20line-height%3A%201.75em%3B%20font-family%3A%20Consolas%2C%20%26amp%3Bquot%3BYaHei%20Consolas%20Hybrid%26amp%3Bquot%3B%2C%20%26amp%3Bquot%3BMeiryo%20UI%26amp%3Bquot%3B%2C%20%26amp%3Bquot%3BMalgun%20Gothic%26amp%3Bquot%3B%2C%20%26amp%3Bquot%3BSegoe%20UI%26amp%3Bquot%3B%2C%20%26amp%3Bquot%3BTrebuchet%20MS%26amp%3Bquot%3B%2C%20Helvetica%2C%20monospace%2C%20monospace%3B%20font-size%3A%2014px%3B%20white-space%3A%20pre%3B%26quot%3B%26gt%3B%26lt%3Bli%20class%3D%26quot%3BL0%26quot%3B%20style%3D%26quot%3Bpadding%3A%200px%3B%20margin%3A%200px%3B%20box-sizing%3A%20border-box%3B%20list-style-type%3A%20%26amp%3Bquot%3B%26amp%3Bquot%3B%3B%26quot%3B%26gt%3B%26lt%3Bcode%20class%3D%26quot%3Blanguage-yaml%26quot%3B%20style%3D%26quot%3Bpadding%3A%200px%3B%20margin%3A%200px%3B%20box-sizing%3A%20border-box%3B%20font-family%3A%20Consolas%2C%20%26amp%3Bquot%3BYaHei%20Consolas%20Hybrid%26amp%3Bquot%3B%2C%20%26amp%3Bquot%3BMeiryo%20UI%26amp%3Bquot%3B%2C%20%26amp%3Bquot%3BMalgun%20Gothic%26amp%3Bquot%3B%2C%20%26amp%3Bquot%3BSegoe%20UI%26amp%3Bquot%3B%2C%20%26amp%3Bquot%3BTrebuchet%20MS%26amp%3Bquot%3B%2C%20Helvetica%2C%20monospace%2C%20monospace%3B%20font-size%3A%20inherit%3B%20color%3A%20inherit%3B%20overflow-wrap%3A%20normal%3B%20word-break%3A%20normal%3B%20background%3A%20none%3B%20border-radius%3A%203px%3B%20border%3A%20none%3B%20display%3A%20inline%3B%20max-width%3A%20initial%3B%20overflow%3A%20initial%3B%20line-height%3A%20inherit%3B%26quot%3B%26gt%3B%26lt%3Bspan%20class%3D%26quot%3Bpln%26quot%3B%20style%3D%26quot%3Bpadding%3A%200px%3B%20margin%3A%200px%3B%20box-sizing%3A%20border-box%3B%20color%3A%20rgb(0%2C%200%2C%200)%3B%26quot%3B%26gt%3BAdd%20Lint%20task%20ref%20with%20parameters%3A%26lt%3B%2Fspan%26gt%3B%26lt%3B%2Fcode%26gt%3B%26lt%3B%2Fli%26gt%3B%26lt%3Bli%20class%3D%26quot%3BL0%26quot%3B%20style%3D%26quot%3Bpadding%3A%200px%3B%20margin%3A%200px%3B%20box-sizing%3A%20border-box%3B%20list-style-type%3A%20%26amp%3Bquot%3B%26amp%3Bquot%3B%3B%26quot%3B%26gt%3B%26lt%3Bcode%20class%3D%26quot%3Blanguage-yaml%26quot%3B%20style%3D%26quot%3Bpadding%3A%200px%3B%20margin%3A%200px%3B%20box-sizing%3A%20border-box%3B%20font-family%3A%20Consolas%2C%20%26amp%3Bquot%3BYaHei%20Consolas%20Hybrid%26amp%3Bquot%3B%2C%20%26amp%3Bquot%3BMeiryo%20UI%26amp%3Bquot%3B%2C%20%26amp%3Bquot%3BMalgun%20Gothic%26amp%3Bquot%3B%2C%20%26amp%3Bquot%3BSegoe%20UI%26amp%3Bquot%3B%2C%20%26amp%3Bquot%3BTrebuchet%20MS%26amp%3Bquot%3B%2C%20Helvetica%2C%20monospace%2C%20monospace%3B%20font-size%3A%20inherit%3B%20color%3A%20inherit%3B%20overflow-wrap%3A%20normal%3B%20word-break%3A%20normal%3B%20background%3A%20none%3B%20border-radius%3A%203px%3B%20border%3A%20none%3B%20display%3A%20inline%3B%20max-width%3A%20initial%3B%20overflow%3A%20initial%3B%20line-height%3A%20inherit%3B%26quot%3B%26gt%3B%26lt%3Bspan%20class%3D%26quot%3Bpln%26quot%3B%20style%3D%26quot%3Bpadding%3A%200px%3B%20margin%3A%200px%3B%20box-sizing%3A%20border-box%3B%20color%3A%20rgb(0%2C%200%2C%200)%3B%26quot%3B%26gt%3B%26lt%3Bbr%26gt%3B%26lt%3B%2Fspan%26gt%3B%26lt%3B%2Fcode%26gt%3B%26lt%3B%2Fli%26gt%3B%26lt%3Bli%20class%3D%26quot%3BL0%26quot%3B%20style%3D%26quot%3Bpadding%3A%200px%3B%20margin%3A%200px%3B%20box-sizing%3A%20border-box%3B%20list-style-type%3A%20%26amp%3Bquot%3B%26amp%3Bquot%3B%3B%26quot%3B%26gt%3B%26lt%3Bcode%20class%3D%26quot%3Blanguage-yaml%26quot%3B%20style%3D%26quot%3Bpadding%3A%200px%3B%20margin%3A%200px%3B%20box-sizing%3A%20border-box%3B%20font-family%3A%20Consolas%2C%20%26amp%3Bquot%3BYaHei%20Consolas%20Hybrid%26amp%3Bquot%3B%2C%20%26amp%3Bquot%3BMeiryo%20UI%26amp%3Bquot%3B%2C%20%26amp%3Bquot%3BMalgun%20Gothic%26amp%3Bquot%3B%2C%20%26amp%3Bquot%3BSegoe%20UI%26amp%3Bquot%3B%2C%20%26amp%3Bquot%3BTrebuchet%20MS%26amp%3Bquot%3B%2C%20Helvetica%2C%20monospace%2C%20monospace%3B%20font-size%3A%20inherit%3B%20color%3A%20inherit%3B%20overflow-wrap%3A%20normal%3B%20word-break%3A%20normal%3B%20background%3A%20none%3B%20border-radius%3A%203px%3B%20border%3A%20none%3B%20display%3A%20inline%3B%20max-width%3A%20initial%3B%20overflow%3A%20initial%3B%20line-height%3A%20inherit%3B%26quot%3B%26gt%3B%26lt%3Bspan%20class%3D%26quot%3Bpln%26quot%3B%20style%3D%26quot%3Bpadding%3A%200px%3B%20margin%3A%200px%3B%20box-sizing%3A%20border-box%3B%20color%3A%20rgb(0%2C%200%2C%200)%3B%26quot%3B%26gt%3B%20%20%20%20%26lt%3B%2Fspan%26gt%3B%26lt%3Bspan%20class%3D%26quot%3Bpun%26quot%3B%20style%3D%26quot%3Bpadding%3A%200px%3B%20margin%3A%200px%3B%20box-sizing%3A%20border-box%3B%20color%3A%20rgb(102%2C%20102%2C%200)%3B%26quot%3B%26gt%3B-%26lt%3B%2Fspan%26gt%3B%26lt%3Bspan%20class%3D%26quot%3Bpln%26quot%3B%20style%3D%26quot%3Bpadding%3A%200px%3B%20margin%3A%200px%3B%20box-sizing%3A%20border-box%3B%20color%3A%20rgb(0%2C%200%2C%200)%3B%26quot%3B%26gt%3B%20name%26lt%3B%2Fspan%26gt%3B%26lt%3Bspan%20class%3D%26quot%3Bpun%26quot%3B%20style%3D%26quot%3Bpadding%3A%200px%3B%20margin%3A%200px%3B%20box-sizing%3A%20border-box%3B%20color%3A%20rgb(102%2C%20102%2C%200)%3B%26quot%3B%26gt%3B%3A%26lt%3B%2Fspan%26gt%3B%26lt%3Bspan%20class%3D%26quot%3Bpln%26quot%3B%20style%3D%26quot%3Bpadding%3A%200px%3B%20margin%3A%200px%3B%20box-sizing%3A%20border-box%3B%20color%3A%20rgb(0%2C%200%2C%200)%3B%26quot%3B%26gt%3B%20lint%26lt%3B%2Fspan%26gt%3B%26lt%3B%2Fcode%26gt%3B%26lt%3B%2Fli%26gt%3B%26lt%3Bli%20class%3D%26quot%3BL1%26quot%3B%20style%3D%26quot%3Bpadding%3A%200px%3B%20margin%3A%200px%3B%20box-sizing%3A%20border-box%3B%20list-style-type%3A%20%26amp%3Bquot%3B%26amp%3Bquot%3B%3B%20background%3A%20rgb(238%2C%20238%2C%20238)%3B%26quot%3B%26gt%3B%26lt%3Bcode%20class%3D%26quot%3Blanguage-yaml%26quot%3B%20style%3D%26quot%3Bpadding%3A%200px%3B%20margin%3A%200px%3B%20box-sizing%3A%20border-box%3B%20font-family%3A%20Consolas%2C%20%26amp%3Bquot%3BYaHei%20Consolas%20Hybrid%26amp%3Bquot%3B%2C%20%26amp%3Bquot%3BMeiryo%20UI%26amp%3Bquot%3B%2C%20%26amp%3Bquot%3BMalgun%20Gothic%26amp%3Bquot%3B%2C%20%26amp%3Bquot%3BSegoe%20UI%26amp%3Bquot%3B%2C%20%26amp%3Bquot%3BTrebuchet%20MS%26amp%3Bquot%3B%2C%20Helvetica%2C%20monospace%2C%20monospace%3B%20font-size%3A%20inherit%3B%20color%3A%20inherit%3B%20overflow-wrap%3A%20normal%3B%20word-break%3A%20normal%3B%20background%3A%20none%3B%20border-radius%3A%203px%3B%20border%3A%20none%3B%20display%3A%20inline%3B%20max-width%3A%20initial%3B%20overflow%3A%20initial%3B%20line-height%3A%20inherit%3B%26quot%3B%26gt%3B%26lt%3Bspan%20class%3D%26quot%3Bpln%26quot%3B%20style%3D%26quot%3Bpadding%3A%200px%3B%20margin%3A%200px%3B%20box-sizing%3A%20border-box%3B%20color%3A%20rgb(0%2C%200%2C%200)%3B%26quot%3B%26gt%3B%20%20%20%20%20%20workspaces%26lt%3B%2Fspan%26gt%3B%26lt%3Bspan%20class%3D%26quot%3Bpun%26quot%3B%20style%3D%26quot%3Bpadding%3A%200px%3B%20margin%3A%200px%3B%20box-sizing%3A%20border-box%3B%20color%3A%20rgb(102%2C%20102%2C%200)%3B%26quot%3B%26gt%3B%3A%26lt%3B%2Fspan%26gt%3B%26lt%3B%2Fcode%26gt%3B%26lt%3B%2Fli%26gt%3B%26lt%3Bli%20class%3D%26quot%3BL2%26quot%3B%20style%3D%26quot%3Bpadding%3A%200px%3B%20margin%3A%200px%3B%20box-sizing%3A%20border-box%3B%20list-style-type%3A%20%26amp%3Bquot%3B%26amp%3Bquot%3B%3B%26quot%3B%26gt%3B%26lt%3Bcode%20class%3D%26quot%3Blanguage-yaml%26quot%3B%20style%3D%26quot%3Bpadding%3A%200px%3B%20margin%3A%200px%3B%20box-sizing%3A%20border-box%3B%20font-family%3A%20Consolas%2C%20%26amp%3Bquot%3BYaHei%20Consolas%20Hybrid%26amp%3Bquot%3B%2C%20%26amp%3Bquot%3BMeiryo%20UI%26amp%3Bquot%3B%2C%20%26amp%3Bquot%3BMalgun%20Gothic%26amp%3Bquot%3B%2C%20%26amp%3Bquot%3BSegoe%20UI%26amp%3Bquot%3B%2C%20%26amp%3Bquot%3BTrebuchet%20MS%26amp%3Bquot%3B%2C%20Helvetica%2C%20monospace%2C%20monospace%3B%20font-size%3A%20inherit%3B%20color%3A%20inherit%3B%20overflow-wrap%3A%20normal%3B%20word-break%3A%20normal%3B%20background%3A%20none%3B%20border-radius%3A%203px%3B%20border%3A%20none%3B%20display%3A%20inline%3B%20max-width%3A%20initial%3B%20overflow%3A%20initial%3B%20line-height%3A%20inherit%3B%26quot%3B%26gt%3B%26lt%3Bspan%20class%3D%26quot%3Bpln%26quot%3B%20style%3D%26quot%3Bpadding%3A%200px%3B%20margin%3A%200px%3B%20box-sizing%3A%20border-box%3B%20color%3A%20rgb(0%2C%200%2C%200)%3B%26quot%3B%26gt%3B%20%20%20%20%20%20%20%20%26lt%3B%2Fspan%26gt%3B%26lt%3Bspan%20class%3D%26quot%3Bpun%26quot%3B%20style%3D%26quot%3Bpadding%3A%200px%3B%20margin%3A%200px%3B%20box-sizing%3A%20border-box%3B%20color%3A%20rgb(102%2C%20102%2C%200)%3B%26quot%3B%26gt%3B-%26lt%3B%2Fspan%26gt%3B%26lt%3Bspan%20class%3D%26quot%3Bpln%26quot%3B%20style%3D%26quot%3Bpadding%3A%200px%3B%20margin%3A%200px%3B%20box-sizing%3A%20border-box%3B%20color%3A%20rgb(0%2C%200%2C%200)%3B%26quot%3B%26gt%3B%20name%26lt%3B%2Fspan%26gt%3B%26lt%3Bspan%20class%3D%26quot%3Bpun%26quot%3B%20style%3D%26quot%3Bpadding%3A%200px%3B%20margin%3A%200px%3B%20box-sizing%3A%20border-box%3B%20color%3A%20rgb(102%2C%20102%2C%200)%3B%26quot%3B%26gt%3B%3A%26lt%3B%2Fspan%26gt%3B%26lt%3Bspan%20class%3D%26quot%3Bpln%26quot%3B%20style%3D%26quot%3Bpadding%3A%200px%3B%20margin%3A%200px%3B%20box-sizing%3A%20border-box%3B%20color%3A%20rgb(0%2C%200%2C%200)%3B%26quot%3B%26gt%3B%20source%26lt%3B%2Fspan%26gt%3B%26lt%3B%2Fcode%26gt%3B%26lt%3B%2Fli%26gt%3B%26lt%3Bli%20class%3D%26quot%3BL3%26quot%3B%20style%3D%26quot%3Bpadding%3A%200px%3B%20margin%3A%200px%3B%20box-sizing%3A%20border-box%3B%20list-style-type%3A%20%26amp%3Bquot%3B%26amp%3Bquot%3B%3B%20background%3A%20rgb(238%2C%20238%2C%20238)%3B%26quot%3B%26gt%3B%26lt%3Bcode%20class%3D%26quot%3Blanguage-yaml%26quot%3B%20style%3D%26quot%3Bpadding%3A%200px%3B%20margin%3A%200px%3B%20box-sizing%3A%20border-box%3B%20font-family%3A%20Consolas%2C%20%26amp%3Bquot%3BYaHei%20Consolas%20Hybrid%26amp%3Bquot%3B%2C%20%26amp%3Bquot%3BMeiryo%20UI%26amp%3Bquot%3B%2C%20%26amp%3Bquot%3BMalgun%20Gothic%26amp%3Bquot%3B%2C%20%26amp%3Bquot%3BSegoe%20UI%26amp%3Bquot%3B%2C%20%26amp%3Bquot%3BTrebuchet%20MS%26amp%3Bquot%3B%2C%20Helvetica%2C%20monospace%2C%20monospace%3B%20font-size%3A%20inherit%3B%20color%3A%20inherit%3B%20overflow-wrap%3A%20normal%3B%20word-break%3A%20normal%3B%20background%3A%20none%3B%20border-radius%3A%203px%3B%20border%3A%20none%3B%20display%3A%20inline%3B%20max-width%3A%20initial%3B%20overflow%3A%20initial%3B%20line-height%3A%20inherit%3B%26quot%3B%26gt%3B%26lt%3Bspan%20class%3D%26quot%3Bpln%26quot%3B%20style%3D%26quot%3Bpadding%3A%200px%3B%20margin%3A%200px%3B%20box-sizing%3A%20border-box%3B%20color%3A%20rgb(0%2C%200%2C%200)%3B%26quot%3B%26gt%3B%20%20%20%20%20%20%20%20%20%20workspace%26lt%3B%2Fspan%26gt%3B%26lt%3Bspan%20class%3D%26quot%3Bpun%26quot%3B%20style%3D%26quot%3Bpadding%3A%200px%3B%20margin%3A%200px%3B%20box-sizing%3A%20border-box%3B%20color%3A%20rgb(102%2C%20102%2C%200)%3B%26quot%3B%26gt%3B%3A%26lt%3B%2Fspan%26gt%3B%26lt%3Bspan%20class%3D%26quot%3Bpln%26quot%3B%20style%3D%26quot%3Bpadding%3A%200px%3B%20margin%3A%200px%3B%20box-sizing%3A%20border-box%3B%20color%3A%20rgb(0%2C%200%2C%200)%3B%26quot%3B%26gt%3B%20pipeline%26lt%3B%2Fspan%26gt%3B%26lt%3Bspan%20class%3D%26quot%3Bpun%26quot%3B%20style%3D%26quot%3Bpadding%3A%200px%3B%20margin%3A%200px%3B%20box-sizing%3A%20border-box%3B%20color%3A%20rgb(102%2C%20102%2C%200)%3B%26quot%3B%26gt%3B-%26lt%3B%2Fspan%26gt%3B%26lt%3Bspan%20class%3D%26quot%3Bpln%26quot%3B%20style%3D%26quot%3Bpadding%3A%200px%3B%20margin%3A%200px%3B%20box-sizing%3A%20border-box%3B%20color%3A%20rgb(0%2C%200%2C%200)%3B%26quot%3B%26gt%3Bworkspace%26lt%3B%2Fspan%26gt%3B%26lt%3B%2Fcode%26gt%3B%26lt%3B%2Fli%26gt%3B%26lt%3Bli%20class%3D%26quot%3BL4%26quot%3B%20style%3D%26quot%3Bpadding%3A%200px%3B%20margin%3A%200px%3B%20box-sizing%3A%20border-box%3B%20list-style-type%3A%20%26amp%3Bquot%3B%26amp%3Bquot%3B%3B%26quot%3B%26gt%3B%26lt%3Bcode%20class%3D%26quot%3Blanguage-yaml%26quot%3B%20style%3D%26quot%3Bpadding%3A%200px%3B%20margin%3A%200px%3B%20box-sizing%3A%20border-box%3B%20font-family%3A%20Consolas%2C%20%26amp%3Bquot%3BYaHei%20Consolas%20Hybrid%26amp%3Bquot%3B%2C%20%26amp%3Bquot%3BMeiryo%20UI%26amp%3Bquot%3B%2C%20%26amp%3Bquot%3BMalgun%20Gothic%26amp%3Bquot%3B%2C%20%26amp%3Bquot%3BSegoe%20UI%26amp%3Bquot%3B%2C%20%26amp%3Bquot%3BTrebuchet%20MS%26amp%3Bquot%3B%2C%20Helvetica%2C%20monospace%2C%20monospace%3B%20font-size%3A%20inherit%3B%20color%3A%20inherit%3B%20overflow-wrap%3A%20normal%3B%20word-break%3A%20normal%3B%20background%3A%20none%3B%20border-radius%3A%203px%3B%20border%3A%20none%3B%20display%3A%20inline%3B%20max-width%3A%20initial%3B%20overflow%3A%20initial%3B%20line-height%3A%20inherit%3B%26quot%3B%26gt%3B%26lt%3Bspan%20class%3D%26quot%3Bpln%26quot%3B%20style%3D%26quot%3Bpadding%3A%200px%3B%20margin%3A%200px%3B%20box-sizing%3A%20border-box%3B%20color%3A%20rgb(0%2C%200%2C%200)%3B%26quot%3B%26gt%3B%20%20%20%20%20%20taskRef%26lt%3B%2Fspan%26gt%3B%26lt%3Bspan%20class%3D%26quot%3Bpun%26quot%3B%20style%3D%26quot%3Bpadding%3A%200px%3B%20margin%3A%200px%3B%20box-sizing%3A%20border-box%3B%20color%3A%20rgb(102%2C%20102%2C%200)%3B%26quot%3B%26gt%3B%3A%26lt%3B%2Fspan%26gt%3B%26lt%3B%2Fcode%26gt%3B%26lt%3B%2Fli%26gt%3B%26lt%3Bli%20class%3D%26quot%3BL5%26quot%3B%20style%3D%26quot%3Bpadding%3A%200px%3B%20margin%3A%200px%3B%20box-sizing%3A%20border-box%3B%20list-style-type%3A%20%26amp%3Bquot%3B%26amp%3Bquot%3B%3B%20background%3A%20rgb(238%2C%20238%2C%20238)%3B%26quot%3B%26gt%3B%26lt%3Bcode%20class%3D%26quot%3Blanguage-yaml%26quot%3B%20style%3D%26quot%3Bpadding%3A%200px%3B%20margin%3A%200px%3B%20box-sizing%3A%20border-box%3B%20font-family%3A%20Consolas%2C%20%26amp%3Bquot%3BYaHei%20Consolas%20Hybrid%26amp%3Bquot%3B%2C%20%26amp%3Bquot%3BMeiryo%20UI%26amp%3Bquot%3B%2C%20%26amp%3Bquot%3BMalgun%20Gothic%26amp%3Bquot%3B%2C%20%26amp%3Bquot%3BSegoe%20UI%26amp%3Bquot%3B%2C%20%26amp%3Bquot%3BTrebuchet%20MS%26amp%3Bquot%3B%2C%20Helvetica%2C%20monospace%2C%20monospace%3B%20font-size%3A%20inherit%3B%20color%3A%20inherit%3B%20overflow-wrap%3A%20normal%3B%20word-break%3A%20normal%3B%20background%3A%20none%3B%20border-radius%3A%203px%3B%20border%3A%20none%3B%20display%3A%20inline%3B%20max-width%3A%20initial%3B%20overflow%3A%20initial%3B%20line-height%3A%20inherit%3B%26quot%3B%26gt%3B%26lt%3Bspan%20class%3D%26quot%3Bpln%26quot%3B%20style%3D%26quot%3Bpadding%3A%200px%3B%20margin%3A%200px%3B%20box-sizing%3A%20border-box%3B%20color%3A%20rgb(0%2C%200%2C%200)%3B%26quot%3B%26gt%3B%20%20%20%20%20%20%20%20name%26lt%3B%2Fspan%26gt%3B%26lt%3Bspan%20class%3D%26quot%3Bpun%26quot%3B%20style%3D%26quot%3Bpadding%3A%200px%3B%20margin%3A%200px%3B%20box-sizing%3A%20border-box%3B%20color%3A%20rgb(102%2C%20102%2C%200)%3B%26quot%3B%26gt%3B%3A%26lt%3B%2Fspan%26gt%3B%26lt%3Bspan%20class%3D%26quot%3Bpln%26quot%3B%20style%3D%26quot%3Bpadding%3A%200px%3B%20margin%3A%200px%3B%20box-sizing%3A%20border-box%3B%20color%3A%20rgb(0%2C%200%2C%200)%3B%26quot%3B%26gt%3B%20flake8%26lt%3B%2Fspan%26gt%3B%26lt%3B%2Fcode%26gt%3B%26lt%3B%2Fli%26gt%3B%26lt%3Bli%20class%3D%26quot%3BL6%26quot%3B%20style%3D%26quot%3Bpadding%3A%200px%3B%20margin%3A%200px%3B%20box-sizing%3A%20border-box%3B%20list-style-type%3A%20%26amp%3Bquot%3B%26amp%3Bquot%3B%3B%26quot%3B%26gt%3B%26lt%3Bcode%20class%3D%26quot%3Blanguage-yaml%26quot%3B%20style%3D%26quot%3Bpadding%3A%200px%3B%20margin%3A%200px%3B%20box-sizing%3A%20border-box%3B%20font-family%3A%20Consolas%2C%20%26amp%3Bquot%3BYaHei%20Consolas%20Hybrid%26amp%3Bquot%3B%2C%20%26amp%3Bquot%3BMeiryo%20UI%26amp%3Bquot%3B%2C%20%26amp%3Bquot%3BMalgun%20Gothic%26amp%3Bquot%3B%2C%20%26amp%3Bquot%3BSegoe%20UI%26amp%3Bquot%3B%2C%20%26amp%3Bquot%3BTrebuchet%20MS%26amp%3Bquot%3B%2C%20Helvetica%2C%20monospace%2C%20monospace%3B%20font-size%3A%20inherit%3B%20color%3A%20inherit%3B%20overflow-wrap%3A%20normal%3B%20word-break%3A%20normal%3B%20background%3A%20none%3B%20border-radius%3A%203px%3B%20border%3A%20none%3B%20display%3A%20inline%3B%20max-width%3A%20initial%3B%20overflow%3A%20initial%3B%20line-height%3A%20inherit%3B%26quot%3B%26gt%3B%26lt%3Bspan%20class%3D%26quot%3Bpln%26quot%3B%20style%3D%26quot%3Bpadding%3A%200px%3B%20margin%3A%200px%3B%20box-sizing%3A%20border-box%3B%20color%3A%20rgb(0%2C%200%2C%200)%3B%26quot%3B%26gt%3B%20%20%20%20%20%20%26lt%3B%2Fspan%26gt%3B%26lt%3Bspan%20class%3D%26quot%3Bkwd%26quot%3B%20style%3D%26quot%3Bpadding%3A%200px%3B%20margin%3A%200px%3B%20box-sizing%3A%20border-box%3B%20color%3A%20rgb(0%2C%200%2C%20136)%3B%26quot%3B%26gt%3Bparams%26lt%3B%2Fspan%26gt%3B%26lt%3Bspan%20class%3D%26quot%3Bpun%26quot%3B%20style%3D%26quot%3Bpadding%3A%200px%3B%20margin%3A%200px%3B%20box-sizing%3A%20border-box%3B%20color%3A%20rgb(102%2C%20102%2C%200)%3B%26quot%3B%26gt%3B%3A%26lt%3B%2Fspan%26gt%3B%26lt%3B%2Fcode%26gt%3B%26lt%3B%2Fli%26gt%3B%26lt%3Bli%20class%3D%26quot%3BL7%26quot%3B%20style%3D%26quot%3Bpadding%3A%200px%3B%20margin%3A%200px%3B%20box-sizing%3A%20border-box%3B%20list-style-type%3A%20%26amp%3Bquot%3B%26amp%3Bquot%3B%3B%20background%3A%20rgb(238%2C%20238%2C%20238)%3B%26quot%3B%26gt%3B%26lt%3Bcode%20class%3D%26quot%3Blanguage-yaml%26quot%3B%20style%3D%26quot%3Bpadding%3A%200px%3B%20margin%3A%200px%3B%20box-sizing%3A%20border-box%3B%20font-family%3A%20Consolas%2C%20%26amp%3Bquot%3BYaHei%20Consolas%20Hybrid%26amp%3Bquot%3B%2C%20%26amp%3Bquot%3BMeiryo%20UI%26amp%3Bquot%3B%2C%20%26amp%3Bquot%3BMalgun%20Gothic%26amp%3Bquot%3B%2C%20%26amp%3Bquot%3BSegoe%20UI%26amp%3Bquot%3B%2C%20%26amp%3Bquot%3BTrebuchet%20MS%26amp%3Bquot%3B%2C%20Helvetica%2C%20monospace%2C%20monospace%3B%20font-size%3A%20inherit%3B%20color%3A%20inherit%3B%20overflow-wrap%3A%20normal%3B%20word-break%3A%20normal%3B%20background%3A%20none%3B%20border-radius%3A%203px%3B%20border%3A%20none%3B%20display%3A%20inline%3B%20max-width%3A%20initial%3B%20overflow%3A%20initial%3B%20line-height%3A%20inherit%3B%26quot%3B%26gt%3B%26lt%3Bspan%20class%3D%26quot%3Bpln%26quot%3B%20style%3D%26quot%3Bpadding%3A%200px%3B%20margin%3A%200px%3B%20box-sizing%3A%20border-box%3B%20color%3A%20rgb(0%2C%200%2C%200)%3B%26quot%3B%26gt%3B%20%20%20%20%20%20%26lt%3B%2Fspan%26gt%3B%26lt%3Bspan%20class%3D%26quot%3Bpun%26quot%3B%20style%3D%26quot%3Bpadding%3A%200px%3B%20margin%3A%200px%3B%20box-sizing%3A%20border-box%3B%20color%3A%20rgb(102%2C%20102%2C%200)%3B%26quot%3B%26gt%3B-%26lt%3B%2Fspan%26gt%3B%26lt%3Bspan%20class%3D%26quot%3Bpln%26quot%3B%20style%3D%26quot%3Bpadding%3A%200px%3B%20margin%3A%200px%3B%20box-sizing%3A%20border-box%3B%20color%3A%20rgb(0%2C%200%2C%200)%3B%26quot%3B%26gt%3B%20name%26lt%3B%2Fspan%26gt%3B%26lt%3Bspan%20class%3D%26quot%3Bpun%26quot%3B%20style%3D%26quot%3Bpadding%3A%200px%3B%20margin%3A%200px%3B%20box-sizing%3A%20border-box%3B%20color%3A%20rgb(102%2C%20102%2C%200)%3B%26quot%3B%26gt%3B%3A%26lt%3B%2Fspan%26gt%3B%26lt%3Bspan%20class%3D%26quot%3Bpln%26quot%3B%20style%3D%26quot%3Bpadding%3A%200px%3B%20margin%3A%200px%3B%20box-sizing%3A%20border-box%3B%20color%3A%20rgb(0%2C%200%2C%200)%3B%26quot%3B%26gt%3B%20image%26lt%3B%2Fspan%26gt%3B%26lt%3B%2Fcode%26gt%3B%26lt%3B%2Fli%26gt%3B%26lt%3Bli%20class%3D%26quot%3BL8%26quot%3B%20style%3D%26quot%3Bpadding%3A%200px%3B%20margin%3A%200px%3B%20box-sizing%3A%20border-box%3B%20list-style-type%3A%20%26amp%3Bquot%3B%26amp%3Bquot%3B%3B%26quot%3B%26gt%3B%26lt%3Bcode%20class%3D%26quot%3Blanguage-yaml%26quot%3B%20style%3D%26quot%3Bpadding%3A%200px%3B%20margin%3A%200px%3B%20box-sizing%3A%20border-box%3B%20font-family%3A%20Consolas%2C%20%26amp%3Bquot%3BYaHei%20Consolas%20Hybrid%26amp%3Bquot%3B%2C%20%26amp%3Bquot%3BMeiryo%20UI%26amp%3Bquot%3B%2C%20%26amp%3Bquot%3BMalgun%20Gothic%26amp%3Bquot%3B%2C%20%26amp%3Bquot%3BSegoe%20UI%26amp%3Bquot%3B%2C%20%26amp%3Bquot%3BTrebuchet%20MS%26amp%3Bquot%3B%2C%20Helvetica%2C%20monospace%2C%20monospace%3B%20font-size%3A%20inherit%3B%20color%3A%20inherit%3B%20overflow-wrap%3A%20normal%3B%20word-break%3A%20normal%3B%20background%3A%20none%3B%20border-radius%3A%203px%3B%20border%3A%20none%3B%20display%3A%20inline%3B%20max-width%3A%20initial%3B%20overflow%3A%20initial%3B%20line-height%3A%20inherit%3B%26quot%3B%26gt%3B%26lt%3Bspan%20class%3D%26quot%3Bpln%26quot%3B%20style%3D%26quot%3Bpadding%3A%200px%3B%20margin%3A%200px%3B%20box-sizing%3A%20border-box%3B%20color%3A%20rgb(0%2C%200%2C%200)%3B%26quot%3B%26gt%3B%20%20%20%20%20%20%20%20value%26lt%3B%2Fspan%26gt%3B%26lt%3Bspan%20class%3D%26quot%3Bpun%26quot%3B%20style%3D%26quot%3Bpadding%3A%200px%3B%20margin%3A%200px%3B%20box-sizing%3A%20border-box%3B%20color%3A%20rgb(102%2C%20102%2C%200)%3B%26quot%3B%26gt%3B%3A%26lt%3B%2Fspan%26gt%3B%26lt%3Bspan%20class%3D%26quot%3Bpln%26quot%3B%20style%3D%26quot%3Bpadding%3A%200px%3B%20margin%3A%200px%3B%20box-sizing%3A%20border-box%3B%20color%3A%20rgb(0%2C%200%2C%200)%3B%26quot%3B%26gt%3B%20%26lt%3B%2Fspan%26gt%3B%26lt%3Bspan%20class%3D%26quot%3Bstr%26quot%3B%20style%3D%26quot%3Bpadding%3A%200px%3B%20margin%3A%200px%3B%20box-sizing%3A%20border-box%3B%20color%3A%20rgb(0%2C%20136%2C%200)%3B%26quot%3B%26gt%3B%26quot%3Bpython%3A3.9-slim%26quot%3B%26lt%3B%2Fspan%26gt%3B%26lt%3B%2Fcode%26gt%3B%26lt%3B%2Fli%26gt%3B%26lt%3Bli%20class%3D%26quot%3BL9%26quot%3B%20style%3D%26quot%3Bpadding%3A%200px%3B%20margin%3A%200px%3B%20box-sizing%3A%20border-box%3B%20background%3A%20rgb(238%2C%20238%2C%20238)%3B%20list-style-type%3A%20%26amp%3Bquot%3B%26amp%3Bquot%3B%3B%26quot%3B%26gt%3B%26lt%3Bcode%20class%3D%26quot%3Blanguage-yaml%26quot%3B%20style%3D%26quot%3Bpadding%3A%200px%3B%20margin%3A%200px%3B%20box-sizing%3A%20border-box%3B%20font-family%3A%20Consolas%2C%20%26amp%3Bquot%3BYaHei%20Consolas%20Hybrid%26amp%3Bquot%3B%2C%20%26amp%3Bquot%3BMeiryo%20UI%26amp%3Bquot%3B%2C%20%26amp%3Bquot%3BMalgun%20Gothic%26amp%3Bquot%3B%2C%20%26amp%3Bquot%3BSegoe%20UI%26amp%3Bquot%3B%2C%20%26amp%3Bquot%3BTrebuchet%20MS%26amp%3Bquot%3B%2C%20Helvetica%2C%20monospace%2C%20monospace%3B%20font-size%3A%20inherit%3B%20color%3A%20inherit%3B%20overflow-wrap%3A%20normal%3B%20word-break%3A%20normal%3B%20background%3A%20none%3B%20border-radius%3A%203px%3B%20border%3A%20none%3B%20display%3A%20inline%3B%20max-width%3A%20initial%3B%20overflow%3A%20initial%3B%20line-height%3A%20inherit%3B%26quot%3B%26gt%3B%26lt%3Bspan%20class%3D%26quot%3Bpln%26quot%3B%20style%3D%26quot%3Bpadding%3A%200px%3B%20margin%3A%200px%3B%20box-sizing%3A%20border-box%3B%20color%3A%20rgb(0%2C%200%2C%200)%3B%26quot%3B%26gt%3B%20%20%20%20%20%20%26lt%3B%2Fspan%26gt%3B%26lt%3Bspan%20class%3D%26quot%3Bpun%26quot%3B%20style%3D%26quot%3Bpadding%3A%200px%3B%20margin%3A%200px%3B%20box-sizing%3A%20border-box%3B%20color%3A%20rgb(102%2C%20102%2C%200)%3B%26quot%3B%26gt%3B-%26lt%3B%2Fspan%26gt%3B%26lt%3Bspan%20class%3D%26quot%3Bpln%26quot%3B%20style%3D%26quot%3Bpadding%3A%200px%3B%20margin%3A%200px%3B%20box-sizing%3A%20border-box%3B%20color%3A%20rgb(0%2C%200%2C%200)%3B%26quot%3B%26gt%3B%20name%26lt%3B%2Fspan%26gt%3B%26lt%3Bspan%20class%3D%26quot%3Bpun%26quot%3B%20style%3D%26quot%3Bpadding%3A%200px%3B%20margin%3A%200px%3B%20box-sizing%3A%20border-box%3B%20color%3A%20rgb(102%2C%20102%2C%200)%3B%26quot%3B%26gt%3B%3A%26lt%3B%2Fspan%26gt%3B%26lt%3Bspan%20class%3D%26quot%3Bpln%26quot%3B%20style%3D%26quot%3Bpadding%3A%200px%3B%20margin%3A%200px%3B%20box-sizing%3A%20border-box%3B%20color%3A%20rgb(0%2C%200%2C%200)%3B%26quot%3B%26gt%3B%20args%26lt%3B%2Fspan%26gt%3B%26lt%3B%2Fcode%26gt%3B%26lt%3B%2Fli%26gt%3B%26lt%3Bli%20class%3D%26quot%3BL0%26quot%3B%20style%3D%26quot%3Bpadding%3A%200px%3B%20margin%3A%200px%3B%20box-sizing%3A%20border-box%3B%20list-style-type%3A%20%26amp%3Bquot%3B%26amp%3Bquot%3B%3B%26quot%3B%26gt%3B%26lt%3Bcode%20class%3D%26quot%3Blanguage-yaml%26quot%3B%20style%3D%26quot%3Bpadding%3A%200px%3B%20margin%3A%200px%3B%20box-sizing%3A%20border-box%3B%20font-family%3A%20Consolas%2C%20%26amp%3Bquot%3BYaHei%20Consolas%20Hybrid%26amp%3Bquot%3B%2C%20%26amp%3Bquot%3BMeiryo%20UI%26amp%3Bquot%3B%2C%20%26amp%3Bquot%3BMalgun%20Gothic%26amp%3Bquot%3B%2C%20%26amp%3Bquot%3BSegoe%20UI%26amp%3Bquot%3B%2C%20%26amp%3Bquot%3BTrebuchet%20MS%26amp%3Bquot%3B%2C%20Helvetica%2C%20monospace%2C%20monospace%3B%20font-size%3A%20inherit%3B%20color%3A%20inherit%3B%20overflow-wrap%3A%20normal%3B%20word-break%3A%20normal%3B%20background%3A%20none%3B%20border-radius%3A%203px%3B%20border%3A%20none%3B%20display%3A%20inline%3B%20max-width%3A%20initial%3B%20overflow%3A%20initial%3B%20line-height%3A%20inherit%3B%26quot%3B%26gt%3B%26lt%3Bspan%20class%3D%26quot%3Bpln%26quot%3B%20style%3D%26quot%3Bpadding%3A%200px%3B%20margin%3A%200px%3B%20box-sizing%3A%20border-box%3B%20color%3A%20rgb(0%2C%200%2C%200)%3B%26quot%3B%26gt%3B%20%20%20%20%20%20%20%20value%26lt%3B%2Fspan%26gt%3B%26lt%3Bspan%20class%3D%26quot%3Bpun%26quot%3B%20style%3D%26quot%3Bpadding%3A%200px%3B%20margin%3A%200px%3B%20box-sizing%3A%20border-box%3B%20color%3A%20rgb(102%2C%20102%2C%200)%3B%26quot%3B%26gt%3B%3A%26lt%3B%2Fspan%26gt%3B%26lt%3Bspan%20class%3D%26quot%3Bpln%26quot%3B%20style%3D%26quot%3Bpadding%3A%200px%3B%20margin%3A%200px%3B%20box-sizing%3A%20border-box%3B%20color%3A%20rgb(0%2C%200%2C%200)%3B%26quot%3B%26gt%3B%20%26lt%3B%2Fspan%26gt%3B%26lt%3Bspan%20class%3D%26quot%3Bpun%26quot%3B%20style%3D%26quot%3Bpadding%3A%200px%3B%20margin%3A%200px%3B%20box-sizing%3A%20border-box%3B%20color%3A%20rgb(102%2C%20102%2C%200)%3B%26quot%3B%26gt%3B%5B%26lt%3B%2Fspan%26gt%3B%26lt%3Bspan%20class%3D%26quot%3Bstr%26quot%3B%20style%3D%26quot%3Bpadding%3A%200px%3B%20margin%3A%200px%3B%20box-sizing%3A%20border-box%3B%20color%3A%20rgb(0%2C%20136%2C%200)%3B%26quot%3B%26gt%3B%26quot%3B--count%26quot%3B%26lt%3B%2Fspan%26gt%3B%26lt%3Bspan%20class%3D%26quot%3Bpun%26quot%3B%20style%3D%26quot%3Bpadding%3A%200px%3B%20margin%3A%200px%3B%20box-sizing%3A%20border-box%3B%20color%3A%20rgb(102%2C%20102%2C%200)%3B%26quot%3B%26gt%3B%2C%26lt%3B%2Fspan%26gt%3B%26lt%3Bspan%20class%3D%26quot%3Bstr%26quot%3B%20style%3D%26quot%3Bpadding%3A%200px%3B%20margin%3A%200px%3B%20box-sizing%3A%20border-box%3B%20color%3A%20rgb(0%2C%20136%2C%200)%3B%26quot%3B%26gt%3B%26quot%3B--max-complexity%3D10%26quot%3B%26lt%3B%2Fspan%26gt%3B%26lt%3Bspan%20class%3D%26quot%3Bpun%26quot%3B%20style%3D%26quot%3Bpadding%3A%200px%3B%20margin%3A%200px%3B%20box-sizing%3A%20border-box%3B%20color%3A%20rgb(102%2C%20102%2C%200)%3B%26quot%3B%26gt%3B%2C%26lt%3B%2Fspan%26gt%3B%26lt%3Bspan%20class%3D%26quot%3Bstr%26quot%3B%20style%3D%26quot%3Bpadding%3A%200px%3B%20margin%3A%200px%3B%20box-sizing%3A%20border-box%3B%20color%3A%20rgb(0%2C%20136%2C%200)%3B%26quot%3B%26gt%3B%26quot%3B--max-line-length%3D127%26quot%3B%26lt%3B%2Fspan%26gt%3B%26lt%3Bspan%20class%3D%26quot%3Bpun%26quot%3B%20style%3D%26quot%3Bpadding%3A%200px%3B%20margin%3A%200px%3B%20box-sizing%3A%20border-box%3B%20color%3A%20rgb(102%2C%20102%2C%200)%3B%26quot%3B%26gt%3B%2C%26lt%3B%2Fspan%26gt%3B%26lt%3Bspan%20class%3D%26quot%3Bstr%26quot%3B%20style%3D%26quot%3Bpadding%3A%200px%3B%20margin%3A%200px%3B%20box-sizing%3A%20border-box%3B%20color%3A%20rgb(0%2C%20136%2C%200)%3B%26quot%3B%26gt%3B%26quot%3B--statistics%26quot%3B%26lt%3B%2Fspan%26gt%3B%26lt%3Bspan%20class%3D%26quot%3Bpun%26quot%3B%20style%3D%26quot%3Bpadding%3A%200px%3B%20margin%3A%200px%3B%20box-sizing%3A%20border-box%3B%20color%3A%20rgb(102%2C%20102%2C%200)%3B%26quot%3B%26gt%3B%5D%26lt%3B%2Fspan%26gt%3B%26lt%3B%2Fcode%26gt%3B%26lt%3B%2Fli%26gt%3B%26lt%3Bli%20class%3D%26quot%3BL1%26quot%3B%20style%3D%26quot%3Bpadding%3A%200px%3B%20margin%3A%200px%3B%20box-sizing%3A%20border-box%3B%20list-style-type%3A%20%26amp%3Bquot%3B%26amp%3Bquot%3B%3B%20background%3A%20rgb(238%2C%20238%2C%20238)%3B%26quot%3B%26gt%3B%26lt%3Bcode%20class%3D%26quot%3Blanguage-yaml%26quot%3B%20style%3D%26quot%3Bpadding%3A%200px%3B%20margin%3A%200px%3B%20box-sizing%3A%20border-box%3B%20font-family%3A%20Consolas%2C%20%26amp%3Bquot%3BYaHei%20Consolas%20Hybrid%26amp%3Bquot%3B%2C%20%26amp%3Bquot%3BMeiryo%20UI%26amp%3Bquot%3B%2C%20%26amp%3Bquot%3BMalgun%20Gothic%26amp%3Bquot%3B%2C%20%26amp%3Bquot%3BSegoe%20UI%26amp%3Bquot%3B%2C%20%26amp%3Bquot%3BTrebuchet%20MS%26amp%3Bquot%3B%2C%20Helvetica%2C%20monospace%2C%20monospace%3B%20font-size%3A%20inherit%3B%20color%3A%20inherit%3B%20overflow-wrap%3A%20normal%3B%20word-break%3A%20normal%3B%20background%3A%20none%3B%20border-radius%3A%203px%3B%20border%3A%20none%3B%20display%3A%20inline%3B%20max-width%3A%20initial%3B%20overflow%3A%20initial%3B%20line-height%3A%20inherit%3B%26quot%3B%26gt%3B%26lt%3Bspan%20class%3D%26quot%3Bpln%26quot%3B%20style%3D%26quot%3Bpadding%3A%200px%3B%20margin%3A%200px%3B%20box-sizing%3A%20border-box%3B%20color%3A%20rgb(0%2C%200%2C%200)%3B%26quot%3B%26gt%3B%20%20%20%20%20%20runAfter%26lt%3B%2Fspan%26gt%3B%26lt%3Bspan%20class%3D%26quot%3Bpun%26quot%3B%20style%3D%26quot%3Bpadding%3A%200px%3B%20margin%3A%200px%3B%20box-sizing%3A%20border-box%3B%20color%3A%20rgb(102%2C%20102%2C%200)%3B%26quot%3B%26gt%3B%3A%26lt%3B%2Fspan%26gt%3B%26lt%3B%2Fcode%26gt%3B%26lt%3B%2Fli%26gt%3B%26lt%3Bli%20class%3D%26quot%3BL2%26quot%3B%20style%3D%26quot%3Bpadding%3A%200px%3B%20margin%3A%200px%3B%20box-sizing%3A%20border-box%3B%20list-style-type%3A%20%26amp%3Bquot%3B%26amp%3Bquot%3B%3B%26quot%3B%26gt%3B%26lt%3Bcode%20class%3D%26quot%3Blanguage-yaml%26quot%3B%20style%3D%26quot%3Bpadding%3A%200px%3B%20margin%3A%200px%3B%20box-sizing%3A%20border-box%3B%20font-family%3A%20Consolas%2C%20%26amp%3Bquot%3BYaHei%20Consolas%20Hybrid%26amp%3Bquot%3B%2C%20%26amp%3Bquot%3BMeiryo%20UI%26amp%3Bquot%3B%2C%20%26amp%3Bquot%3BMalgun%20Gothic%26amp%3Bquot%3B%2C%20%26amp%3Bquot%3BSegoe%20UI%26amp%3Bquot%3B%2C%20%26amp%3Bquot%3BTrebuchet%20MS%26amp%3Bquot%3B%2C%20Helvetica%2C%20monospace%2C%20monospace%3B%20font-size%3A%20inherit%3B%20color%3A%20inherit%3B%20overflow-wrap%3A%20normal%3B%20word-break%3A%20normal%3B%20background%3A%20none%3B%20border-radius%3A%203px%3B%20border%3A%20none%3B%20display%3A%20inline%3B%20max-width%3A%20initial%3B%20overflow%3A%20initial%3B%20line-height%3A%20inherit%3B%26quot%3B%26gt%3B%26lt%3Bspan%20class%3D%26quot%3Bpln%26quot%3B%20style%3D%26quot%3Bpadding%3A%200px%3B%20margin%3A%200px%3B%20box-sizing%3A%20border-box%3B%20color%3A%20rgb(0%2C%200%2C%200)%3B%26quot%3B%26gt%3B%20%20%20%20%20%20%20%20%26lt%3B%2Fspan%26gt%3B%26lt%3Bspan%20class%3D%26quot%3Bpun%26quot%3B%20style%3D%26quot%3Bpadding%3A%200px%3B%20margin%3A%200px%3B%20box-sizing%3A%20border-box%3B%20color%3A%20rgb(102%2C%20102%2C%200)%3B%26quot%3B%26gt%3B-%26lt%3B%2Fspan%26gt%3B%26lt%3Bspan%20class%3D%26quot%3Bpln%26quot%3B%20style%3D%26quot%3Bpadding%3A%200px%3B%20margin%3A%200px%3B%20box-sizing%3A%20border-box%3B%20color%3A%20rgb(0%2C%200%2C%200)%3B%26quot%3B%26gt%3B%20clone%26lt%3B%2Fspan%26gt%3B%26lt%3B%2Fcode%26gt%3B%26lt%3B%2Fli%26gt%3B%26lt%3Bli%26gt%3B%26lt%3B%2Fli%26gt%3B%26lt%3B%2Fol%26gt%3B%22%20style%3D%22text%3BspacingTop%3D-5%3BwhiteSpace%3Dwrap%3Bhtml%3D1%3Balign%3Dleft%3BfontSize%3D12%3BfontFamily%3DHelvetica%3BfillColor%3D%23F5F5F5%3BstrokeColor%3Dnone%3Boverflow%3Dfill%3Bcollapsible%3D1%3BmovableLabel%3D0%3Bautosize%3D0%3BfixedWidth%3D0%3BsnapToPoint%3D0%3Bcontainer%3D0%3BmetaEdit%3D0%3BbackgroundOutline%3D0%3BresizeHeight%3D0%3BtreeFolding%3D0%3BtreeMoving%3D0%3Bcomic%3D0%3B%22%20vertex%3D%221%22%20parent%3D%221%22%3E%3CmxGeometry%20x%3D%22290%22%20y%3D%221180.5%22%20width%3D%22310%22%20height%3D%22330%22%20as%3D%22geometry%22%2F%3E%3C%2FmxCell%3E%3C%2Froot%3E%3C%2FmxGraphModel%3E&lt;/span&gt;&lt;br&gt;&lt;/li&gt;&lt;li style=&quot;font-family: Consolas, &amp;quot;YaHei Consolas Hybrid&amp;quot;, &amp;quot;Meiryo UI&amp;quot;, &amp;quot;Malgun Gothic&amp;quot;, &amp;quot;Segoe UI&amp;quot;, &amp;quot;Trebuchet MS&amp;quot;, Helvetica, monospace, monospace;&quot;&gt;&lt;div style=&quot;&quot;&gt;Start the pipeline&lt;/div&gt;&lt;/li&gt;&lt;li style=&quot;color: rgb(153, 153, 153);&quot;&gt;&lt;div style=&quot;&quot;&gt;&lt;font face=&quot;Consolas, YaHei Consolas Hybrid, Meiryo UI, Malgun Gothic, Segoe UI, Trebuchet MS, Helvetica, monospace, monospace&quot;&gt;&lt;br&gt;&lt;/font&gt;&lt;/div&gt;&lt;/li&gt;&lt;li style=&quot;color: rgb(153, 153, 153);&quot;&gt;&lt;div style=&quot;color: rgb(0, 0, 0); background-color: rgb(255, 255, 255); line-height: 19px;&quot;&gt;&lt;div style=&quot;&quot;&gt;&lt;ol style=&quot;font-family: Consolas, &amp;quot;YaHei Consolas Hybrid&amp;quot;, &amp;quot;Meiryo UI&amp;quot;, &amp;quot;Malgun Gothic&amp;quot;, &amp;quot;Segoe UI&amp;quot;, &amp;quot;Trebuchet MS&amp;quot;, Helvetica, monospace, monospace; padding: 5px 15px; margin: 0px; box-sizing: border-box; color: rgb(153, 153, 153); overflow-x: auto; flex: 1 1 0%; line-height: 1.75em;&quot; class=&quot;linenums&quot;&gt;&lt;li style=&quot;padding: 0px; margin: 0px; box-sizing: border-box; list-style-type: &amp;quot;&amp;quot;;&quot; class=&quot;L0&quot;&gt;&lt;code style=&quot;padding: 0px; margin: 0px; box-sizing: border-box; font-family: Consolas, &amp;quot;YaHei Consolas Hybrid&amp;quot;, &amp;quot;Meiryo UI&amp;quot;, &amp;quot;Malgun Gothic&amp;quot;, &amp;quot;Segoe UI&amp;quot;, &amp;quot;Trebuchet MS&amp;quot;, Helvetica, monospace, monospace; font-size: inherit; color: inherit; overflow-wrap: normal; word-break: normal; background: none; border-radius: 3px; border: none; display: inline; max-width: initial; overflow: initial; line-height: inherit;&quot; class=&quot;language-bash&quot;&gt;&lt;span style=&quot;padding: 0px; margin: 0px; box-sizing: border-box; color: rgb(0, 0, 0);&quot; class=&quot;pln&quot;&gt;tkn pipeline start cd&lt;/span&gt;&lt;span style=&quot;padding: 0px; margin: 0px; box-sizing: border-box; color: rgb(102, 102, 0);&quot; class=&quot;pun&quot;&gt;-&lt;/span&gt;&lt;span style=&quot;padding: 0px; margin: 0px; box-sizing: border-box; color: rgb(0, 0, 0);&quot; class=&quot;pln&quot;&gt;pipeline \&lt;/span&gt;&lt;/code&gt;&lt;/li&gt;&lt;li style=&quot;padding: 0px; margin: 0px; box-sizing: border-box; list-style-type: &amp;quot;&amp;quot;; background: rgb(238, 238, 238);&quot; class=&quot;L1&quot;&gt;&lt;code style=&quot;padding: 0px; margin: 0px; box-sizing: border-box; font-family: Consolas, &amp;quot;YaHei Consolas Hybrid&amp;quot;, &amp;quot;Meiryo UI&amp;quot;, &amp;quot;Malgun Gothic&amp;quot;, &amp;quot;Segoe UI&amp;quot;, &amp;quot;Trebuchet MS&amp;quot;, Helvetica, monospace, monospace; font-size: inherit; color: inherit; overflow-wrap: normal; word-break: normal; background: none; border-radius: 3px; border: none; display: inline; max-width: initial; overflow: initial; line-height: inherit;&quot; class=&quot;language-bash&quot;&gt;&lt;span style=&quot;padding: 0px; margin: 0px; box-sizing: border-box; color: rgb(0, 0, 0);&quot; class=&quot;pln&quot;&gt;    &lt;/span&gt;&lt;span style=&quot;padding: 0px; margin: 0px; box-sizing: border-box; color: rgb(102, 102, 0);&quot; class=&quot;pun&quot;&gt;-&lt;/span&gt;&lt;span style=&quot;padding: 0px; margin: 0px; box-sizing: border-box; color: rgb(0, 0, 0);&quot; class=&quot;pln&quot;&gt;p repo&lt;/span&gt;&lt;span style=&quot;padding: 0px; margin: 0px; box-sizing: border-box; color: rgb(102, 102, 0);&quot; class=&quot;pun&quot;&gt;-&lt;/span&gt;&lt;span style=&quot;padding: 0px; margin: 0px; box-sizing: border-box; color: rgb(0, 0, 0);&quot; class=&quot;pln&quot;&gt;url&lt;/span&gt;&lt;span style=&quot;padding: 0px; margin: 0px; box-sizing: border-box; color: rgb(102, 102, 0);&quot; class=&quot;pun&quot;&gt;=&lt;/span&gt;&lt;span style=&quot;padding: 0px; margin: 0px; box-sizing: border-box; color: rgb(0, 136, 0);&quot; class=&quot;str&quot;&gt;&quot;https://github.com/ibm-developer-skills-network/wtecc-CICD_PracticeCode.git&quot;&lt;/span&gt;&lt;span style=&quot;padding: 0px; margin: 0px; box-sizing: border-box; color: rgb(0, 0, 0);&quot; class=&quot;pln&quot;&gt; \&lt;/span&gt;&lt;/code&gt;&lt;/li&gt;&lt;li style=&quot;padding: 0px; margin: 0px; box-sizing: border-box; list-style-type: &amp;quot;&amp;quot;;&quot; class=&quot;L2&quot;&gt;&lt;code style=&quot;padding: 0px; margin: 0px; box-sizing: border-box; font-family: Consolas, &amp;quot;YaHei Consolas Hybrid&amp;quot;, &amp;quot;Meiryo UI&amp;quot;, &amp;quot;Malgun Gothic&amp;quot;, &amp;quot;Segoe UI&amp;quot;, &amp;quot;Trebuchet MS&amp;quot;, Helvetica, monospace, monospace; font-size: inherit; color: inherit; overflow-wrap: normal; word-break: normal; background: none; border-radius: 3px; border: none; display: inline; max-width: initial; overflow: initial; line-height: inherit;&quot; class=&quot;language-bash&quot;&gt;&lt;span style=&quot;padding: 0px; margin: 0px; box-sizing: border-box; color: rgb(0, 0, 0);&quot; class=&quot;pln&quot;&gt;    &lt;/span&gt;&lt;span style=&quot;padding: 0px; margin: 0px; box-sizing: border-box; color: rgb(102, 102, 0);&quot; class=&quot;pun&quot;&gt;-&lt;/span&gt;&lt;span style=&quot;padding: 0px; margin: 0px; box-sizing: border-box; color: rgb(0, 0, 0);&quot; class=&quot;pln&quot;&gt;p branch&lt;/span&gt;&lt;span style=&quot;padding: 0px; margin: 0px; box-sizing: border-box; color: rgb(102, 102, 0);&quot; class=&quot;pun&quot;&gt;=&lt;/span&gt;&lt;span style=&quot;padding: 0px; margin: 0px; box-sizing: border-box; color: rgb(0, 0, 0);&quot; class=&quot;pln&quot;&gt;main \&lt;/span&gt;&lt;/code&gt;&lt;/li&gt;&lt;li style=&quot;padding: 0px; margin: 0px; box-sizing: border-box; list-style-type: &amp;quot;&amp;quot;; background: rgb(238, 238, 238);&quot; class=&quot;L3&quot;&gt;&lt;code style=&quot;padding: 0px; margin: 0px; box-sizing: border-box; font-family: Consolas, &amp;quot;YaHei Consolas Hybrid&amp;quot;, &amp;quot;Meiryo UI&amp;quot;, &amp;quot;Malgun Gothic&amp;quot;, &amp;quot;Segoe UI&amp;quot;, &amp;quot;Trebuchet MS&amp;quot;, Helvetica, monospace, monospace; font-size: inherit; color: inherit; overflow-wrap: normal; word-break: normal; background: none; border-radius: 3px; border: none; display: inline; max-width: initial; overflow: initial; line-height: inherit;&quot; class=&quot;language-bash&quot;&gt;&lt;span style=&quot;padding: 0px; margin: 0px; box-sizing: border-box; color: rgb(0, 0, 0);&quot; class=&quot;pln&quot;&gt;    &lt;/span&gt;&lt;span style=&quot;padding: 0px; margin: 0px; box-sizing: border-box; color: rgb(102, 102, 0);&quot; class=&quot;pun&quot;&gt;-&lt;/span&gt;&lt;span style=&quot;padding: 0px; margin: 0px; box-sizing: border-box; color: rgb(0, 0, 0);&quot; class=&quot;pln&quot;&gt;p build&lt;/span&gt;&lt;span style=&quot;padding: 0px; margin: 0px; box-sizing: border-box; color: rgb(102, 102, 0);&quot; class=&quot;pun&quot;&gt;-&lt;/span&gt;&lt;span style=&quot;padding: 0px; margin: 0px; box-sizing: border-box; color: rgb(0, 0, 0);&quot; class=&quot;pln&quot;&gt;image&lt;/span&gt;&lt;span style=&quot;padding: 0px; margin: 0px; box-sizing: border-box; color: rgb(102, 102, 0);&quot; class=&quot;pun&quot;&gt;=&lt;/span&gt;&lt;span style=&quot;padding: 0px; margin: 0px; box-sizing: border-box; color: rgb(0, 0, 0);&quot; class=&quot;pln&quot;&gt;image&lt;/span&gt;&lt;span style=&quot;padding: 0px; margin: 0px; box-sizing: border-box; color: rgb(102, 102, 0);&quot; class=&quot;pun&quot;&gt;-&lt;/span&gt;&lt;span style=&quot;padding: 0px; margin: 0px; box-sizing: border-box; color: rgb(0, 0, 0);&quot; class=&quot;pln&quot;&gt;registry&lt;/span&gt;&lt;span style=&quot;padding: 0px; margin: 0px; box-sizing: border-box; color: rgb(102, 102, 0);&quot; class=&quot;pun&quot;&gt;.&lt;/span&gt;&lt;span style=&quot;padding: 0px; margin: 0px; box-sizing: border-box; color: rgb(0, 0, 0);&quot; class=&quot;pln&quot;&gt;openshift&lt;/span&gt;&lt;span style=&quot;padding: 0px; margin: 0px; box-sizing: border-box; color: rgb(102, 102, 0);&quot; class=&quot;pun&quot;&gt;-&lt;/span&gt;&lt;span style=&quot;padding: 0px; margin: 0px; box-sizing: border-box; color: rgb(0, 0, 0);&quot; class=&quot;pln&quot;&gt;image&lt;/span&gt;&lt;span style=&quot;padding: 0px; margin: 0px; box-sizing: border-box; color: rgb(102, 102, 0);&quot; class=&quot;pun&quot;&gt;-&lt;/span&gt;&lt;span style=&quot;padding: 0px; margin: 0px; box-sizing: border-box; color: rgb(0, 0, 0);&quot; class=&quot;pln&quot;&gt;registry&lt;/span&gt;&lt;span style=&quot;padding: 0px; margin: 0px; box-sizing: border-box; color: rgb(102, 102, 0);&quot; class=&quot;pun&quot;&gt;.&lt;/span&gt;&lt;span style=&quot;padding: 0px; margin: 0px; box-sizing: border-box; color: rgb(0, 0, 0);&quot; class=&quot;pln&quot;&gt;svc&lt;/span&gt;&lt;span style=&quot;padding: 0px; margin: 0px; box-sizing: border-box; color: rgb(102, 102, 0);&quot; class=&quot;pun&quot;&gt;:&lt;/span&gt;&lt;span style=&quot;padding: 0px; margin: 0px; box-sizing: border-box; color: rgb(0, 102, 102);&quot; class=&quot;lit&quot;&gt;5000&lt;/span&gt;&lt;span style=&quot;padding: 0px; margin: 0px; box-sizing: border-box; color: rgb(102, 102, 0);&quot; class=&quot;pun&quot;&gt;/&lt;/span&gt;&lt;span style=&quot;padding: 0px; margin: 0px; box-sizing: border-box; color: rgb(0, 0, 0);&quot; class=&quot;pln&quot;&gt;$SN_ICR_NAMESPACE&lt;/span&gt;&lt;span style=&quot;padding: 0px; margin: 0px; box-sizing: border-box; color: rgb(102, 102, 0);&quot; class=&quot;pun&quot;&gt;/&lt;/span&gt;&lt;span style=&quot;padding: 0px; margin: 0px; box-sizing: border-box; color: rgb(0, 0, 0);&quot; class=&quot;pln&quot;&gt;tekton&lt;/span&gt;&lt;span style=&quot;padding: 0px; margin: 0px; box-sizing: border-box; color: rgb(102, 102, 0);&quot; class=&quot;pun&quot;&gt;-&lt;/span&gt;&lt;span style=&quot;padding: 0px; margin: 0px; box-sizing: border-box; color: rgb(0, 0, 0);&quot; class=&quot;pln&quot;&gt;lab&lt;/span&gt;&lt;span style=&quot;padding: 0px; margin: 0px; box-sizing: border-box; color: rgb(102, 102, 0);&quot; class=&quot;pun&quot;&gt;:&lt;/span&gt;&lt;span style=&quot;padding: 0px; margin: 0px; box-sizing: border-box; color: rgb(0, 0, 0);&quot; class=&quot;pln&quot;&gt;latest \&lt;/span&gt;&lt;/code&gt;&lt;/li&gt;&lt;li style=&quot;padding: 0px; margin: 0px; box-sizing: border-box; list-style-type: &amp;quot;&amp;quot;;&quot; class=&quot;L4&quot;&gt;&lt;code style=&quot;padding: 0px; margin: 0px; box-sizing: border-box; font-family: Consolas, &amp;quot;YaHei Consolas Hybrid&amp;quot;, &amp;quot;Meiryo UI&amp;quot;, &amp;quot;Malgun Gothic&amp;quot;, &amp;quot;Segoe UI&amp;quot;, &amp;quot;Trebuchet MS&amp;quot;, Helvetica, monospace, monospace; font-size: inherit; color: inherit; overflow-wrap: normal; word-break: normal; background: none; border-radius: 3px; border: none; display: inline; max-width: initial; overflow: initial; line-height: inherit;&quot; class=&quot;language-bash&quot;&gt;&lt;span style=&quot;padding: 0px; margin: 0px; box-sizing: border-box; color: rgb(0, 0, 0);&quot; class=&quot;pln&quot;&gt;    &lt;/span&gt;&lt;span style=&quot;padding: 0px; margin: 0px; box-sizing: border-box; color: rgb(102, 102, 0);&quot; class=&quot;pun&quot;&gt;-&lt;/span&gt;&lt;span style=&quot;padding: 0px; margin: 0px; box-sizing: border-box; color: rgb(0, 0, 0);&quot; class=&quot;pln&quot;&gt;w name&lt;/span&gt;&lt;span style=&quot;padding: 0px; margin: 0px; box-sizing: border-box; color: rgb(102, 102, 0);&quot; class=&quot;pun&quot;&gt;=&lt;/span&gt;&lt;span style=&quot;padding: 0px; margin: 0px; box-sizing: border-box; color: rgb(0, 0, 0);&quot; class=&quot;pln&quot;&gt;pipeline&lt;/span&gt;&lt;span style=&quot;padding: 0px; margin: 0px; box-sizing: border-box; color: rgb(102, 102, 0);&quot; class=&quot;pun&quot;&gt;-&lt;/span&gt;&lt;span style=&quot;padding: 0px; margin: 0px; box-sizing: border-box; color: rgb(0, 0, 0);&quot; class=&quot;pln&quot;&gt;workspace&lt;/span&gt;&lt;span style=&quot;padding: 0px; margin: 0px; box-sizing: border-box; color: rgb(102, 102, 0);&quot; class=&quot;pun&quot;&gt;,&lt;/span&gt;&lt;span style=&quot;padding: 0px; margin: 0px; box-sizing: border-box; color: rgb(0, 0, 0);&quot; class=&quot;pln&quot;&gt;claimName&lt;/span&gt;&lt;span style=&quot;padding: 0px; margin: 0px; box-sizing: border-box; color: rgb(102, 102, 0);&quot; class=&quot;pun&quot;&gt;=&lt;/span&gt;&lt;span style=&quot;padding: 0px; margin: 0px; box-sizing: border-box; color: rgb(0, 0, 0);&quot; class=&quot;pln&quot;&gt;pipelinerun&lt;/span&gt;&lt;span style=&quot;padding: 0px; margin: 0px; box-sizing: border-box; color: rgb(102, 102, 0);&quot; class=&quot;pun&quot;&gt;-&lt;/span&gt;&lt;span style=&quot;padding: 0px; margin: 0px; box-sizing: border-box; color: rgb(0, 0, 0);&quot; class=&quot;pln&quot;&gt;pvc \&lt;/span&gt;&lt;/code&gt;&lt;/li&gt;&lt;li style=&quot;padding: 0px; margin: 0px; box-sizing: border-box; list-style-type: &amp;quot;&amp;quot;; background: rgb(238, 238, 238);&quot; class=&quot;L5&quot;&gt;&lt;code style=&quot;padding: 0px; margin: 0px; box-sizing: border-box; font-family: Consolas, &amp;quot;YaHei Consolas Hybrid&amp;quot;, &amp;quot;Meiryo UI&amp;quot;, &amp;quot;Malgun Gothic&amp;quot;, &amp;quot;Segoe UI&amp;quot;, &amp;quot;Trebuchet MS&amp;quot;, Helvetica, monospace, monospace; font-size: inherit; color: inherit; overflow-wrap: normal; word-break: normal; background: none; border-radius: 3px; border: none; display: inline; max-width: initial; overflow: initial; line-height: inherit;&quot; class=&quot;language-bash&quot;&gt;&lt;span style=&quot;padding: 0px; margin: 0px; box-sizing: border-box; color: rgb(0, 0, 0);&quot; class=&quot;pln&quot;&gt;    &lt;/span&gt;&lt;span style=&quot;padding: 0px; margin: 0px; box-sizing: border-box; color: rgb(102, 102, 0);&quot; class=&quot;pun&quot;&gt;--&lt;/span&gt;&lt;span style=&quot;padding: 0px; margin: 0px; box-sizing: border-box; color: rgb(0, 0, 0);&quot; class=&quot;pln&quot;&gt;showlog&lt;/span&gt;&lt;/code&gt;&lt;/li&gt;&lt;/ol&gt;&lt;div style=&quot;&quot;&gt;&lt;font face=&quot;Consolas, YaHei Consolas Hybrid, Meiryo UI, Malgun Gothic, Segoe UI, Trebuchet MS, Helvetica, monospace, monospace&quot;&gt;&lt;br&gt;Check the logs of the last run with:&lt;/font&gt;&lt;/div&gt;&lt;/div&gt;&lt;/div&gt;&lt;/li&gt;&lt;/ol&gt;&lt;div&gt;&lt;pre style=&quot;padding: 0px 42px 0px 0px; margin-top: 0px; margin-bottom: 16px; box-sizing: border-box; font-variant-numeric: normal; font-variant-east-asian: normal; font-variant-alternates: normal; font-kerning: auto; font-optical-sizing: auto; font-feature-settings: normal; font-variation-settings: normal; font-variant-position: normal; font-stretch: normal; font-size: 14px; line-height: 1.6; font-family: Consolas, &amp;quot;YaHei Consolas Hybrid&amp;quot;, &amp;quot;Meiryo UI&amp;quot;, &amp;quot;Malgun Gothic&amp;quot;, &amp;quot;Segoe UI&amp;quot;, &amp;quot;Trebuchet MS&amp;quot;, Helvetica, monospace, monospace; overflow: visible; display: flex; background-color: var(--code-block-bg); border-radius: 0px; overflow-wrap: break-word; border: 1px solid var(--code-block-outline); background-image: initial; background-position: initial; background-size: initial; background-repeat: initial; background-attachment: initial; background-origin: initial; background-clip: initial; position: relative;&quot; class=&quot;prettyprint linenums prettyprinted&quot;&gt;&lt;ol style=&quot;color: rgb(153, 153, 153); padding: 5px 15px; margin: 0px; box-sizing: border-box; overflow-x: auto; flex: 1 1 0%; line-height: 1.75em;&quot; class=&quot;linenums&quot;&gt;&lt;li style=&quot;padding: 0px; margin: 0px; box-sizing: border-box; list-style-type: &amp;quot;&amp;quot;;&quot; class=&quot;L0&quot;&gt;&lt;code style=&quot;padding: 0px; margin: 0px; box-sizing: border-box; font-family: Consolas, &amp;quot;YaHei Consolas Hybrid&amp;quot;, &amp;quot;Meiryo UI&amp;quot;, &amp;quot;Malgun Gothic&amp;quot;, &amp;quot;Segoe UI&amp;quot;, &amp;quot;Trebuchet MS&amp;quot;, Helvetica, monospace, monospace; font-size: inherit; color: inherit; overflow-wrap: normal; word-break: normal; background: none; border-radius: 3px; border: none; display: inline; max-width: initial; overflow: initial; line-height: inherit;&quot; class=&quot;language-bash&quot;&gt;&lt;span style=&quot;padding: 0px; margin: 0px; box-sizing: border-box; color: rgb(0, 0, 0);&quot; class=&quot;pln&quot;&gt;tkn pipelinerun logs &lt;/span&gt;&lt;span style=&quot;padding: 0px; margin: 0px; box-sizing: border-box; color: rgb(102, 102, 0);&quot; class=&quot;pun&quot;&gt;--&lt;/span&gt;&lt;span style=&quot;padding: 0px; margin: 0px; box-sizing: border-box; color: rgb(0, 0, 0);&quot; class=&quot;pln&quot;&gt;last&lt;/span&gt;&lt;/code&gt;&lt;/li&gt;&lt;li style=&quot;padding: 0px; margin: 0px; box-sizing: border-box; list-style-type: &amp;quot;&amp;quot;;&quot; class=&quot;L0&quot;&gt;&lt;code style=&quot;padding: 0px; margin: 0px; box-sizing: border-box; font-family: Consolas, &amp;quot;YaHei Consolas Hybrid&amp;quot;, &amp;quot;Meiryo UI&amp;quot;, &amp;quot;Malgun Gothic&amp;quot;, &amp;quot;Segoe UI&amp;quot;, &amp;quot;Trebuchet MS&amp;quot;, Helvetica, monospace, monospace; font-size: inherit; color: inherit; overflow-wrap: normal; word-break: normal; background: none; border-radius: 3px; border: none; display: inline; max-width: initial; overflow: initial; line-height: inherit;&quot; class=&quot;language-bash&quot;&gt;&lt;span style=&quot;padding: 0px; margin: 0px; box-sizing: border-box; color: rgb(0, 0, 0);&quot; class=&quot;pln&quot;&gt;&lt;br/&gt;&lt;br/&gt;&lt;p style=&quot;padding: 0px; margin: 0px 0px 16px; box-sizing: border-box; color: rgb(51, 51, 51); font-family: &amp;quot;Microsoft YaHei&amp;quot;, Helvetica, &amp;quot;Meiryo UI&amp;quot;, &amp;quot;Malgun Gothic&amp;quot;, &amp;quot;Segoe UI&amp;quot;, &amp;quot;Trebuchet MS&amp;quot;, Monaco, monospace, Tahoma, STXihei, 华文细黑, STHeiti, &amp;quot;Helvetica Neue&amp;quot;, &amp;quot;Droid Sans&amp;quot;, &amp;quot;wenquanyi micro hei&amp;quot;, FreeSans, Arimo, Arial, SimSun, 宋体, Heiti, 黑体, sans-serif; white-space: normal; background-color: rgb(255, 255, 255);&quot;&gt;Now, check to see if the deployment is running. Use the&amp;nbsp;&lt;code style=&quot;padding: 3px; margin: 0px 4px 0px 5px; box-sizing: border-box; font-family: Consolas, &amp;quot;YaHei Consolas Hybrid&amp;quot;, &amp;quot;Meiryo UI&amp;quot;, &amp;quot;Malgun Gothic&amp;quot;, &amp;quot;Segoe UI&amp;quot;, &amp;quot;Trebuchet MS&amp;quot;, Helvetica, monospace, monospace; color: rgb(232, 62, 140); overflow-wrap: break-word; background: rgb(246, 246, 246); border-radius: 3px; border: 1px solid rgb(221, 221, 221);&quot;&gt;kubectl&lt;/code&gt;&amp;nbsp;command to check that your deployment is in a running state.&lt;/p&gt;&lt;pre style=&quot;padding: 0px 42px 0px 0px; margin-top: 0px; margin-bottom: 16px; box-sizing: border-box; font-variant-numeric: normal; font-variant-east-asian: normal; font-variant-alternates: normal; font-kerning: auto; font-optical-sizing: auto; font-feature-settings: normal; font-variation-settings: normal; font-variant-position: normal; font-stretch: normal; line-height: 1.6; font-family: Consolas, &amp;quot;YaHei Consolas Hybrid&amp;quot;, &amp;quot;Meiryo UI&amp;quot;, &amp;quot;Malgun Gothic&amp;quot;, &amp;quot;Segoe UI&amp;quot;, &amp;quot;Trebuchet MS&amp;quot;, Helvetica, monospace, monospace; overflow: visible; display: flex; color: rgb(33, 37, 41); background-color: var(--code-block-bg); border-radius: 0px; overflow-wrap: break-word; border: 1px solid var(--code-block-outline); background-image: initial; background-position: initial; background-size: initial; background-repeat: initial; background-attachment: initial; background-origin: initial; background-clip: initial; position: relative;&quot; class=&quot;prettyprint linenums prettyprinted&quot;&gt;&lt;ol style=&quot;padding: 5px 20px; margin: 0px; box-sizing: border-box; list-style-type: none; display: flex; flex-flow: column; border-right: 1px solid var(--code-block-outline); background-color: var(--code-block-linenums-bg); line-height: 1.75em;&quot; class=&quot;formatted-line-numbers&quot;&gt;&lt;li style=&quot;padding: 0px; margin: 0px; box-sizing: border-box; color: var(--code-block-linenums); text-align: right;&quot;&gt;1&lt;/li&gt;&lt;/ol&gt;&lt;ol style=&quot;padding: 5px 15px; margin: 0px; box-sizing: border-box; color: rgb(153, 153, 153); overflow-x: auto; flex: 1 1 0%; line-height: 1.75em;&quot; class=&quot;linenums&quot;&gt;&lt;li style=&quot;padding: 0px; margin: 0px; box-sizing: border-box; list-style-type: &amp;quot;&amp;quot;;&quot; class=&quot;L0&quot;&gt;&lt;code style=&quot;padding: 0px; margin: 0px; box-sizing: border-box; font-family: Consolas, &amp;quot;YaHei Consolas Hybrid&amp;quot;, &amp;quot;Meiryo UI&amp;quot;, &amp;quot;Malgun Gothic&amp;quot;, &amp;quot;Segoe UI&amp;quot;, &amp;quot;Trebuchet MS&amp;quot;, Helvetica, monospace, monospace; font-size: inherit; color: inherit; overflow-wrap: normal; word-break: normal; background: none; border-radius: 3px; border: none; display: inline; max-width: initial; overflow: initial; line-height: inherit;&quot; class=&quot;language-bash&quot;&gt;&lt;span style=&quot;padding: 0px; margin: 0px; box-sizing: border-box; color: rgb(0, 0, 0);&quot; class=&quot;pln&quot;&gt;kubectl get all &lt;/span&gt;&lt;span style=&quot;padding: 0px; margin: 0px; box-sizing: border-box; color: rgb(102, 102, 0);&quot; class=&quot;pun&quot;&gt;-&lt;/span&gt;&lt;span style=&quot;padding: 0px; margin: 0px; box-sizing: border-box; color: rgb(0, 0, 0);&quot; class=&quot;pln&quot;&gt;l app&lt;/span&gt;&lt;span style=&quot;padding: 0px; margin: 0px; box-sizing: border-box; color: rgb(102, 102, 0);&quot; class=&quot;pun&quot;&gt;=&lt;/span&gt;&lt;span style=&quot;padding: 0px; margin: 0px; box-sizing: border-box; color: rgb(0, 0, 0);&quot; class=&quot;pln&quot;&gt;hitcounter&lt;/span&gt;&lt;/code&gt;&lt;/li&gt;&lt;/ol&gt;&lt;/pre&gt;&lt;/span&gt;&lt;/code&gt;&lt;/li&gt;&lt;/ol&gt;&lt;div&gt;&lt;br&gt;&lt;/div&gt;&lt;div&gt;&lt;br&gt;&lt;/div&gt;&lt;div&gt;&lt;br&gt;&lt;/div&gt;&lt;div&gt;&lt;br&gt;&lt;/div&gt;&lt;div&gt;&lt;br&gt;&lt;/div&gt;&lt;div&gt;&lt;br&gt;&lt;/div&gt;&lt;div style=&quot;&quot;&gt;&lt;br&gt;&lt;/div&gt;&lt;div style=&quot;&quot;&gt;&lt;br&gt;&lt;/div&gt;&lt;div style=&quot;&quot;&gt;&lt;br&gt;&lt;/div&gt;&lt;/pre&gt;&lt;/div&gt;" style="text;spacingTop=-5;whiteSpace=wrap;html=1;align=left;fontSize=12;fontFamily=Helvetica;fillColor=#F5F5F5;strokeColor=none;overflow=fill;collapsible=1;movableLabel=0;autosize=0;fixedWidth=0;snapToPoint=0;container=0;metaEdit=0;backgroundOutline=0;resizeHeight=0;treeFolding=0;treeMoving=0;comic=0;" vertex="1" parent="1">
          <mxGeometry x="660" y="1540" width="640" height="470" as="geometry" />
        </mxCell>
        <UserObject label="&lt;div&gt;Pod&lt;br&gt;&lt;br&gt;&lt;br&gt;&lt;/div&gt;" link="$ kubectl apply -f tasks.yaml&#xa;task.tekton.dev/echo created&#xa;task.tekton.dev/checkout created" id="V4-tu-K6Rpd_aIwKzUje-47">
          <mxCell style="whiteSpace=wrap;html=1;shadow=1;fontSize=18;fillColor=#f5f5f5;strokeColor=#666666;" vertex="1" parent="1">
            <mxGeometry x="1510" y="420" width="200.25" height="90" as="geometry" />
          </mxCell>
        </UserObject>
        <UserObject label="&lt;div&gt;Pod&lt;br&gt;&lt;br&gt;&lt;br&gt;&lt;/div&gt;" link="$ kubectl apply -f tasks.yaml&#xa;task.tekton.dev/echo created&#xa;task.tekton.dev/checkout created" id="V4-tu-K6Rpd_aIwKzUje-49">
          <mxCell style="whiteSpace=wrap;html=1;shadow=1;fontSize=18;fillColor=#f5f5f5;strokeColor=#666666;" vertex="1" parent="1">
            <mxGeometry x="1519.99" y="1080" width="200.25" height="90" as="geometry" />
          </mxCell>
        </UserObject>
        <UserObject label="&lt;div&gt;Container&lt;/div&gt;" link="$ kubectl apply -f tasks.yaml&#xa;task.tekton.dev/echo created&#xa;task.tekton.dev/checkout created" id="V4-tu-K6Rpd_aIwKzUje-50">
          <mxCell style="whiteSpace=wrap;html=1;shadow=1;fontSize=18;fillColor=#f5f5f5;strokeColor=#666666;" vertex="1" parent="1">
            <mxGeometry x="1525.07" y="461" width="170.12" height="40" as="geometry" />
          </mxCell>
        </UserObject>
        <UserObject label="&lt;div&gt;Container&lt;/div&gt;" link="$ kubectl apply -f tasks.yaml&#xa;task.tekton.dev/echo created&#xa;task.tekton.dev/checkout created" id="V4-tu-K6Rpd_aIwKzUje-48">
          <mxCell style="whiteSpace=wrap;html=1;shadow=1;fontSize=18;fillColor=#f5f5f5;strokeColor=#666666;" vertex="1" parent="1">
            <mxGeometry x="1540.1299999999999" y="1120" width="170.12" height="40" as="geometry" />
          </mxCell>
        </UserObject>
        <UserObject label="&lt;div&gt;Pod&lt;br&gt;&lt;br&gt;&lt;br&gt;&lt;/div&gt;" link="$ kubectl apply -f tasks.yaml&#xa;task.tekton.dev/echo created&#xa;task.tekton.dev/checkout created" id="V4-tu-K6Rpd_aIwKzUje-51">
          <mxCell style="whiteSpace=wrap;html=1;shadow=1;fontSize=18;fillColor=#f5f5f5;strokeColor=#666666;" vertex="1" parent="1">
            <mxGeometry x="1519.99" y="1290" width="200.25" height="90" as="geometry" />
          </mxCell>
        </UserObject>
        <UserObject label="&lt;div&gt;Container&lt;/div&gt;" link="$ kubectl apply -f tasks.yaml&#xa;task.tekton.dev/echo created&#xa;task.tekton.dev/checkout created" id="V4-tu-K6Rpd_aIwKzUje-52">
          <mxCell style="whiteSpace=wrap;html=1;shadow=1;fontSize=18;fillColor=#f5f5f5;strokeColor=#666666;" vertex="1" parent="1">
            <mxGeometry x="1540.1299999999999" y="1330" width="170.12" height="40" as="geometry" />
          </mxCell>
        </UserObject>
        <mxCell id="V4-tu-K6Rpd_aIwKzUje-53" value="" style="endArrow=none;html=1;rounded=0;" edge="1" parent="1">
          <mxGeometry width="50" height="50" relative="1" as="geometry">
            <mxPoint x="1650" y="1350" as="sourcePoint" />
            <mxPoint x="1700" y="1300" as="targetPoint" />
          </mxGeometry>
        </mxCell>
        <mxCell id="V4-tu-K6Rpd_aIwKzUje-54" style="edgeStyle=orthogonalEdgeStyle;rounded=0;orthogonalLoop=1;jettySize=auto;html=1;exitX=1;exitY=0.5;exitDx=0;exitDy=0;entryX=0.05;entryY=0.556;entryDx=0;entryDy=0;entryPerimeter=0;" edge="1" parent="1" source="V4-tu-K6Rpd_aIwKzUje-8" target="V4-tu-K6Rpd_aIwKzUje-49">
          <mxGeometry relative="1" as="geometry" />
        </mxCell>
        <mxCell id="V4-tu-K6Rpd_aIwKzUje-55" style="edgeStyle=orthogonalEdgeStyle;rounded=0;orthogonalLoop=1;jettySize=auto;html=1;exitX=1;exitY=0.5;exitDx=0;exitDy=0;entryX=0.05;entryY=0.556;entryDx=0;entryDy=0;entryPerimeter=0;" edge="1" parent="1">
          <mxGeometry relative="1" as="geometry">
            <mxPoint x="1370.5" y="1345" as="sourcePoint" />
            <mxPoint x="1529.5" y="1345" as="targetPoint" />
          </mxGeometry>
        </mxCell>
        <mxCell id="V4-tu-K6Rpd_aIwKzUje-56" style="edgeStyle=orthogonalEdgeStyle;rounded=0;orthogonalLoop=1;jettySize=auto;html=1;exitX=1;exitY=0.5;exitDx=0;exitDy=0;entryX=0.05;entryY=0.556;entryDx=0;entryDy=0;entryPerimeter=0;" edge="1" parent="1">
          <mxGeometry relative="1" as="geometry">
            <mxPoint x="1380.5" y="450" as="sourcePoint" />
            <mxPoint x="1539.5" y="450" as="targetPoint" />
          </mxGeometry>
        </mxCell>
      </root>
    </mxGraphModel>
  </diagram>
</mxfile>
